<?xml version="1.0" encoding="UTF-8"?>
<svg version="1.1" viewBox="0 0 1600 1600" width="1280" height="1280" xmlns="http://www.w3.org/2000/svg">
<path transform="translate(455 895)" d="m0 0c0.954-0.00946 1.91-0.0189 2.89-0.0287 1.03 0.00607 2.06 0.0121 3.12 0.0184 1.58-0.00431 1.58-0.00431 3.2-0.0087 2.23-0.00204 4.47 0.0035 6.7 0.016 3.43 0.0161 6.86 1.47e-4 10.3-0.019 2.17 0.00198 4.33 0.00583 6.5 0.0117 1.55-0.00911 1.55-0.00911 3.12-0.0184 1.43 0.0142 1.43 0.0142 2.88 0.0287 0.839 0.00239 1.68 0.00477 2.54 0.00723 1.01 0.189 1.01 0.189 2.04 0.381 0.66 0.99 1.32 1.98 2 3 1.89 0.457 1.89 0.457 4.06 0.406 0.797 0.0219 1.59 0.0438 2.41 0.0664 1.25 0.0135 1.25 0.0135 2.52 0.0273 1.65 0.0178 3.29 0.0485 4.94 0.0938 0.731 0.00709 1.46 0.0142 2.21 0.0215 1.85 0.385 1.85 0.385 3.85 3.38 3.35 0.587 3.35 0.587 7.12 0.688 1.28 0.0657 2.56 0.131 3.88 0.199 0.987 0.0374 1.97 0.0748 2.99 0.113 0.33 0.99 0.66 1.98 1 3 1.06 0.0374 2.12 0.0748 3.21 0.113 1.39 0.0657 2.78 0.132 4.16 0.199 1.05 0.0338 1.05 0.0338 2.12 0.0684 2.03 0.107 2.03 0.107 5.51 0.619 0.66 0.99 1.32 1.98 2 3 2 0.34 4 0.673 6 1 0.698 0.742 0.698 0.742 1.41 1.5 2.06 1.95 3.3 1.89 6.09 2 4.14 0.166 4.14 0.166 6.09 1.96 0.467 0.507 0.933 1.01 1.41 1.54 2 0.679 4 1.35 6 2 0.33 0.66 0.66 1.32 1 2 1.07 0.247 2.14 0.495 3.25 0.75 4.56 1.52 5.73 3.62 8.75 7.25 2.35 1.06 4.44 1.5 7 2v2c1.03 0.0206 2.06 0.0412 3.12 0.0625 4.69 1.14 5.54 2.61 8.32 6.29 2.49 2.65 5.07 2.9 8.55 3.65 0.33 0.66 0.66 1.32 1 2 1.07 0.247 2.14 0.495 3.25 0.75 4.54 1.51 5.75 3.63 8.75 7.25 0.969 0.144 1.94 0.289 2.94 0.438 4.14 0.76 5.06 2.77 7.55 5.98 2.21 2.3 4.43 2.3 7.52 2.58 0.66 0.99 1.32 1.98 2 3 3.07 0.733 3.07 0.733 6 1v2c0.959 0.402 0.959 0.402 1.94 0.812 2.06 1.19 2.06 1.19 3.06 4.19 2.31 0.33 4.62 0.66 7 1 0.33 0.99 0.66 1.98 1 3 1.32 0.699 2.65 1.37 4 2 0.33 0.66 0.66 1.32 1 2 1.73 0.495 1.73 0.495 3.5 1 1.73 0.495 1.73 0.495 3.5 1 0.33 0.66 0.66 1.32 1 2 0.887 0.0619 1.77 0.124 2.69 0.188 3.68 0.902 4.06 1.4 6.25 4.25 3 3.88 5.29 4.7 10.1 5.56v2c0.959 0.433 0.959 0.433 1.94 0.875 2.06 1.12 2.06 1.12 3.06 3.12 0.99 0.165 1.98 0.33 3 0.5 0.99 0.165 1.98 0.33 3 0.5 0.33 0.66 0.66 1.32 1 2 2.31 0.731 4.65 1.4 7 2v2c0.959 0.402 0.959 0.402 1.94 0.812 2.06 1.19 2.06 1.19 3.06 4.19 2.31 0.33 4.62 0.66 7 1 0.33 0.99 0.66 1.98 1 3 2 1.21 2 1.21 4 2v2c2.31 0.33 4.62 0.66 7 1 0.33 0.99 0.66 1.98 1 3 0.99 0.33 1.98 0.66 3 1 0.66 0.99 1.32 1.98 2 3 2.33 0.694 4.66 1.36 7 2l1 2c2.31 0.731 4.65 1.4 7 2v2c0.959 0.433 0.959 0.433 1.94 0.875 2.06 1.12 2.06 1.12 3.06 3.12 2.31 0.731 4.65 1.4 7 2v2c1.32 0.66 2.64 1.32 4 2v2c2.31 0.33 4.62 0.66 7 1 0.33 0.99 0.66 1.98 1 3 2.31 0.33 4.62 0.66 7 1 0.33 0.99 0.66 1.98 1 3 3.96 0.33 7.92 0.66 12 1 0.66-1.32 1.32-2.64 2-4h10c0.66-1.32 1.32-2.64 2-4h10c0.66-1.32 1.32-2.64 2-4h10c0.66-1.32 1.32-2.64 2-4h10c0.66-1.32 1.32-2.64 2-4h6c0.206-0.639 0.412-1.28 0.625-1.94 0.454-0.681 0.908-1.36 1.38-2.06 1.99-0.381 3.99-0.713 6-1 1.02-0.979 2.02-1.98 3-3 1.67-0.333 3.33-0.667 5-1 0.743-0.773 0.743-0.773 1.5-1.56 1.5-1.44 1.5-1.44 4.19-1.62 0.763 0.0619 1.53 0.124 2.31 0.188 0.268-0.598 0.536-1.2 0.812-1.81 1.19-2.19 2.28-3.6 4.19-5.19h2c0.247-0.577 0.495-1.15 0.75-1.75 1.43-2.58 3.03-4.31 5.25-6.25h2c0.247-0.577 0.495-1.15 0.75-1.75 1.43-2.58 3.03-4.31 5.25-6.25h2c0.247-0.577 0.495-1.15 0.75-1.75 1.43-2.58 3.03-4.31 5.25-6.25h2c0.247-0.577 0.495-1.15 0.75-1.75 1.43-2.58 3.03-4.31 5.25-6.25h2c0.247-0.577 0.495-1.15 0.75-1.75 1.43-2.58 3.03-4.31 5.25-6.25h2c0.247-0.577 0.495-1.15 0.75-1.75 1.43-2.58 3.03-4.31 5.25-6.25h2c0.227-0.557 0.454-1.11 0.688-1.69 1.69-2.97 3.78-5.03 6.31-7.31h2c0.66-1.32 1.32-2.64 2-4h6c0.66-1.32 1.32-2.64 2-4h2c0.66-1.32 1.32-2.64 2-4h2c0.66-1.32 1.32-2.64 2-4h6c0.66-1.32 1.32-2.64 2-4h6c0.66-1.32 1.32-2.64 2-4h2c0.66-1.32 1.32-2.64 2-4h6c0.66-1.32 1.32-2.64 2-4h6c0.66-1.32 1.32-2.64 2-4h6c0.66-1.32 1.32-2.64 2-4h6c0.66-1.32 1.32-2.64 2-4h10c0.66-1.32 1.32-2.64 2-4h10c0.66-1.32 1.32-2.64 2-4h10c0.66-1.32 1.32-2.64 2-4h14c0.66-1.32 1.32-2.64 2-4h22c0.66-1.32 1.32-2.64 2-4h42c0.66-1.32 1.32-2.64 2-4 7.51-0.0759 15-0.129 22.5-0.165 2.56-0.0151 5.11-0.0356 7.67-0.0615 3.67-0.0363 7.34-0.0534 11-0.0667 1.15-0.0155 2.3-0.031 3.48-0.0469 1.59-3.4e-4 1.59-3.4e-4 3.21-6.87e-4 0.937-0.00666 1.87-0.0133 2.84-0.0202 1.12 0.179 1.12 0.179 2.25 0.361 0.66 0.99 1.32 1.98 2 3 2.62 0.338 5.01 0.489 7.63 0.512 0.752 0.018 1.5 0.0359 2.28 0.0544 2.4 0.0542 4.81 0.088 7.21 0.121 1.63 0.0332 3.26 0.0676 4.89 0.104 4 0.0851 7.99 0.152 12 0.209 0.33 0.99 0.66 1.98 1 3 0.686 0.0146 1.37 0.0292 2.08 0.0442 3.1 0.0743 6.2 0.171 9.3 0.268 1.08 0.0226 2.16 0.0451 3.27 0.0684 1.03 0.0354 2.06 0.0709 3.12 0.107 0.953 0.0262 1.91 0.0524 2.89 0.0793 0.772 0.143 1.54 0.285 2.34 0.432 0.66 0.99 1.32 1.98 2 3 3.25 0.474 3.25 0.474 6.94 0.5 6.69 0.166 6.69 0.166 8.72 2 0.442 0.495 0.884 0.99 1.34 1.5 2.18 0.464 2.18 0.464 4.5 0.5 4.17 0.167 4.17 0.167 6 2 2.43 2.42 5.16 1.96 8.45 2.09 0.679 0.134 1.36 0.268 2.06 0.406 0.66 0.99 1.32 1.98 2 3 0.99 0.165 1.98 0.33 3 0.5 0.99 0.165 1.98 0.33 3 0.5 0.66 0.99 1.32 1.98 2 3 2.43 0.582 2.43 0.582 5.12 0.688 0.91 0.0657 1.82 0.131 2.76 0.199 0.699 0.0374 1.4 0.0748 2.12 0.113 0.33 0.99 0.66 1.98 1 3 1.13 0.124 2.27 0.247 3.44 0.375 1.18 0.206 2.35 0.413 3.56 0.625 0.33 0.66 0.66 1.32 1 2 2.76 0.608 5.53 0.959 8.34 1.34 2.9 0.719 3.73 1.49 5.66 3.66 0.846 0.165 1.69 0.33 2.56 0.5 2.44 0.5 2.44 0.5 4.44 3.5 2.36 0.47 2.36 0.47 5 0.5 2.69 0.0938 2.69 0.0938 5 0.5 0.66 0.99 1.32 1.98 2 3 2 0.34 4 0.673 6 1 0.454 0.495 0.908 0.99 1.38 1.5 2.32 2.14 4.67 1.92 7.71 2.19 2.58 0.415 3.93 1.65 5.92 3.31 1.05 0.351 2.1 0.701 3.19 1.06 0.928 0.309 1.86 0.619 2.81 0.938 0.33 0.66 0.66 1.32 1 2 2.31 0.731 4.65 1.4 7 2v2c0.759 0.0374 1.52 0.0748 2.3 0.113 1.49 0.0986 1.49 0.0986 3.01 0.199 0.986 0.058 1.97 0.116 2.99 0.176 3.03 0.574 3.73 1.26 5.7 3.51 1.99 0.691 3.99 1.36 6 2 0.66 0.66 1.32 1.32 2 2 0.804 0.144 1.61 0.289 2.44 0.438 2.56 0.562 2.56 0.562 3.94 2.07 2.09 1.93 3.32 1.88 6.12 2 4.14 0.166 4.14 0.166 6.09 1.96 0.467 0.507 0.933 1.01 1.41 1.54 2 0.679 4 1.35 6 2 0.33 0.66 0.66 1.32 1 2 0.969 0.144 1.94 0.289 2.94 0.438 1.01 0.186 2.02 0.371 3.06 0.562 0.66 0.99 1.32 1.98 2 3 0.99 0.165 1.98 0.33 3 0.5 0.99 0.165 1.98 0.33 3 0.5 0.66 0.99 1.32 1.98 2 3 2.43 0.582 2.43 0.582 5.12 0.688 0.91 0.0657 1.82 0.131 2.76 0.199 0.699 0.0374 1.4 0.0748 2.12 0.113 0.33 0.99 0.66 1.98 1 3 1.09 0.103 2.19 0.206 3.31 0.312 3.83 0.715 4.25 1.03 6.69 3.69 1.24 0.247 1.24 0.247 2.5 0.5 2.93 0.586 3.44 1.44 5.5 3.5 3.1 1.2 3.1 1.2 6 2v2c1.09 0.103 2.19 0.206 3.31 0.312 3.83 0.715 4.25 1.03 6.69 3.69 1.24 0.247 1.24 0.247 2.5 0.5 2.91 0.582 3.46 1.46 5.5 3.5 1.24 0.247 1.24 0.247 2.5 0.5 2.91 0.582 3.46 1.46 5.5 3.5 1.24 0.247 1.24 0.247 2.5 0.5 2.93 0.586 3.44 1.44 5.5 3.5 3.1 1.2 3.1 1.2 6 2v2c1.13 0.124 2.27 0.247 3.44 0.375 1.18 0.206 2.35 0.413 3.56 0.625 0.33 0.66 0.66 1.32 1 2 1.74 0.341 3.49 0.599 5.25 0.812 5.05 0.827 7.63 1.92 10.8 6.19 0.33 0.99 0.66 1.98 1 3h10v2c0.603 0.159 1.21 0.317 1.83 0.48 5.45 1.59 7.67 2.97 11.2 7.52 2.31 0.731 4.65 1.4 7 2 0.495 0.516 0.99 1.03 1.5 1.56 2.01 2.2 2.01 2.2 8.5 2.44v36c-2.31 0.33-4.62 0.66-7 1-1.92 1.4-1.92 1.4-3.19 3.31-5.63 7.48-5.63 7.48-9.71 8.19-1.65-0.00278-1.65-0.00278-3.33-0.00562-1.2 6.45e-4 -2.39 0.00129-3.62 0.00195-1.25-0.02-2.49-0.04-3.77-0.0605-1.25 0.00709-2.51 0.0142-3.8 0.0215-6.89-0.0484-6.89-0.0484-9.58-0.459-0.66-0.99-1.32-1.98-2-3-2.33-0.694-4.66-1.36-7-2-0.33-0.66-0.66-1.32-1-2-1.16-0.33-2.31-0.66-3.5-1-1.16-0.33-2.31-0.66-3.5-1-0.33-0.66-0.66-1.32-1-2-2.55-0.356-5.08-0.444-7.65-0.559-0.775-0.146-1.55-0.291-2.35-0.441-0.66-0.99-1.32-1.98-2-3-1.63-0.466-3.27-0.925-4.91-1.33-3.98-1.28-7.51-3.55-11.1-5.67v-2c-0.784-0.0619-1.57-0.124-2.38-0.188-4.98-1.12-9.15-3.42-13.6-5.81v-2c-0.99-0.0825-1.98-0.165-3-0.25-4.41-0.621-8.27-2.34-12-4.75-0.33-0.66-0.66-1.32-1-2-1.98-0.717-3.98-1.38-6-2-0.66-0.33-1.32-0.66-2-1v-2c-0.928 0.0619-1.86 0.124-2.81 0.188-3.19-0.188-3.19-0.188-4.6-1.67-2.51-2.41-5.18-1.98-8.53-2.11-0.679-0.134-1.36-0.268-2.06-0.406-0.66-0.99-1.32-1.98-2-3-2.33-0.694-4.66-1.36-7-2-0.33-0.66-0.66-1.32-1-2-1.16-0.33-2.31-0.66-3.5-1-1.16-0.33-2.31-0.66-3.5-1-0.33-0.66-0.66-1.32-1-2-1.16-0.33-2.31-0.66-3.5-1-1.16-0.33-2.31-0.66-3.5-1-0.33-0.66-0.66-1.32-1-2-1.16-0.33-2.31-0.66-3.5-1-1.16-0.33-2.31-0.66-3.5-1-0.33-0.66-0.66-1.32-1-2-2.55-0.356-5.08-0.444-7.65-0.559-0.775-0.146-1.55-0.291-2.35-0.441-0.66-0.99-1.32-1.98-2-3-1.65-0.496-3.31-0.984-4.98-1.4-3.53-1.05-6.89-2.65-10-4.6-0.33-0.66-0.66-1.32-1-2-1.73-0.464-1.73-0.464-3.5-0.938-1.73-0.526-1.73-0.526-3.5-1.06-0.33-0.99-0.66-1.98-1-3-0.699 0.0348-1.4 0.0696-2.12 0.105-0.91 0.0271-1.82 0.0541-2.76 0.082-0.905 0.0348-1.81 0.0696-2.74 0.105-1.18-0.145-1.18-0.145-2.38-0.293-0.66-0.99-1.32-1.98-2-3-2.33-0.694-4.66-1.36-7-2-0.33-0.66-0.66-1.32-1-2-1.73-0.495-1.73-0.495-3.5-1-1.73-0.495-1.73-0.495-3.5-1-0.33-0.66-0.66-1.32-1-2-2.55-0.315-5.08-0.38-7.65-0.461-2.35-0.539-2.35-0.539-3.66-2.58-0.226-0.647-0.451-1.29-0.684-1.96-1.42 0.0928-1.42 0.0928-2.88 0.188-1.03-0.0619-2.06-0.124-3.12-0.188-0.66-0.99-1.32-1.98-2-3-2.36-0.47-2.36-0.47-5-0.5-2.69-0.0938-2.69-0.0938-5-0.5-0.66-0.99-1.32-1.98-2-3-2.33-0.694-4.66-1.36-7-2-0.33-0.66-0.66-1.32-1-2-1.73-0.495-1.73-0.495-3.5-1-1.73-0.495-1.73-0.495-3.5-1-0.33-0.66-0.66-1.32-1-2-2.55-0.356-5.08-0.444-7.65-0.559-0.775-0.146-1.55-0.291-2.35-0.441-0.66-0.99-1.32-1.98-2-3-1.18-0.33-2.35-0.66-3.56-1-1.13-0.33-2.27-0.66-3.44-1-0.33-0.99-0.66-1.98-1-3-0.699 0.0348-1.4 0.0696-2.12 0.105-0.91 0.0271-1.82 0.0541-2.76 0.082-0.905 0.0348-1.81 0.0696-2.74 0.105-1.18-0.145-1.18-0.145-2.38-0.293-0.66-0.99-1.32-1.98-2-3-2.1-0.469-2.1-0.469-4.44-0.5-2.37-0.0938-2.37-0.0938-4.56-0.5-0.443-0.495-0.887-0.99-1.34-1.5-3.24-2.94-8.32-1.99-12.5-2.09-1.04-0.134-2.08-0.268-3.15-0.406-0.66-0.99-1.32-1.98-2-3-1.92-0.505-1.92-0.505-4.13-0.512-1.21-0.0532-1.21-0.0532-2.44-0.107-1.26-0.0338-1.26-0.0338-2.55-0.0684-0.849-0.0342-1.7-0.0683-2.57-0.104-2.1-0.0826-4.2-0.147-6.3-0.209-0.66-1.32-1.32-2.64-2-4-1.02 0.0157-2.04 0.0314-3.09 0.0476-3.78 0.0542-7.55 0.0887-11.3 0.117-1.64 0.0151-3.27 0.0356-4.91 0.0615-2.35 0.0363-4.7 0.0534-7.04 0.0667-1.1 0.0232-1.1 0.0232-2.22 0.0469-2.06 6.87e-4 -2.06 6.87e-4 -5.41-0.34-0.66-0.99-1.32-1.98-2-3-3.1-0.304-5.99-0.42-9.09-0.398-1.35-0.00431-1.35-0.00431-2.73-0.0087-1.91-0.00204-3.82 0.00351-5.73 0.016-2.93 0.016-5.86 1.61e-4 -8.79-0.019-1.85 0.00198-3.71 0.00583-5.56 0.0117-0.88-0.00607-1.76-0.0121-2.67-0.0184-2.72-0.00378-2.72-0.00378-6.43 0.417-0.66 0.99-1.32 1.98-2 3-2.88 0.301-5.56 0.417-8.44 0.406-0.836 0.0108-1.67 0.0217-2.53 0.0328-3.58 0.046-7.17 0.0574-10.8 0.0721-2.61 0.0157-5.23 0.0486-7.84 0.0825-0.815-0.00302-1.63-0.00604-2.47-0.00916-2.52-6.6e-4 -2.52-6.6e-4 -5.97 0.415-0.66 0.99-1.32 1.98-2 3-1.85 0.385-1.85 0.385-4.06 0.406-0.797 0.0219-1.59 0.0438-2.41 0.0664-1.68 0.0182-3.36 0.0365-5.05 0.0547-0.797 0.0219-1.59 0.0438-2.41 0.0664-0.731 0.00709-1.46 0.0142-2.21 0.0215-2.26 0.246-2.26 0.246-3.85 3.38-3.61 0.461-7.17 0.504-10.8 0.594-1.05 0.134-2.1 0.268-3.19 0.406-0.66 0.99-1.32 1.98-2 3-3.61 0.461-7.17 0.504-10.8 0.594-1.05 0.134-2.1 0.268-3.19 0.406-0.66 0.99-1.32 1.98-2 3-3.62 0.688-3.62 0.688-7 1-0.33 0.99-0.66 1.98-1 3-2.32 0.705-4.66 1.37-7 2-0.33 0.66-0.66 1.32-1 2-2.32 0.407-4.66 0.744-7 1-0.33 0.99-0.66 1.98-1 3-2.31 0.33-4.62 0.66-7 1-0.33 0.99-0.66 1.98-1 3-2.74 3.3-4.39 4.83-8.56 6-4.12 1.2-5.05 2.54-7.44 6-2.98 3.83-2.98 3.83-5.96 4.33-0.714 0.0567-1.43 0.113-2.16 0.172-1.28 0.165-2.56 0.33-3.88 0.5-1.09 1.81-1.09 1.81-2 4-1.12 1.45-2.29 2.87-3.5 4.25-0.608 0.706-1.22 1.41-1.84 2.14-1.66 1.61-1.66 1.61-3.66 1.61-0.33 0.99-0.66 1.98-1 3-1.45 1.39-1.45 1.39-3.25 2.81-2.41 1.98-4.23 3.76-6.25 6.19-2.03 2.44-3.73 4.03-6.19 5.94-3.66 3-4.48 5.46-5.31 10.1h-2c-0.33 0.99-0.66 1.98-1 3-2.36 3-3.69 3.92-7.44 4.88-4.49 1.42-5.78 3.39-8.56 7.12-2.69 2.88-2.69 2.88-5 5h-2c-0.33 0.99-0.66 1.98-1 3-2.36 3-3.69 3.92-7.44 4.88-3.78 0.843-3.78 0.843-6.06 4.12-2.98 3.58-5.06 3.97-9.5 5l-1 2c-2.33 0.667-4.67 1.33-7 2l-1 2c-2.32 0.407-4.66 0.744-7 1-0.33 0.99-0.66 1.98-1 3-0.699 0.0374-1.4 0.0748-2.12 0.113-1.37 0.0986-1.37 0.0986-2.76 0.199-1.36 0.087-1.36 0.087-2.74 0.176-2.75 0.3-2.75 0.3-4.38 3.51-3.62 0.688-3.62 0.688-7 1-0.33 0.99-0.66 1.98-1 3-0.699 0.0374-1.4 0.0748-2.12 0.113-1.37 0.0986-1.37 0.0986-2.76 0.199-1.36 0.087-1.36 0.087-2.74 0.176-2.75 0.3-2.75 0.3-4.38 3.51-2.33 0.694-4.66 1.36-7 2l-1 2c-3.59 0.359-7.17 0.445-10.8 0.559-1.06 0.146-2.13 0.291-3.22 0.441-0.66 0.99-1.32 1.98-2 3-2.58 0.453-5.07 0.503-7.69 0.594-0.763 0.134-1.53 0.268-2.31 0.406-0.66 0.99-1.32 1.98-2 3-3.61 0.461-7.17 0.504-10.8 0.594-1.58 0.201-1.58 0.201-3.19 0.406-0.66 0.99-1.32 1.98-2 3-3.61 0.461-7.17 0.504-10.8 0.594-1.58 0.201-1.58 0.201-3.19 0.406-0.66 0.99-1.32 1.98-2 3-3.61 0.461-7.17 0.504-10.8 0.594-1.58 0.201-1.58 0.201-3.19 0.406-0.66 0.99-1.32 1.98-2 3-1.85 0.385-1.85 0.385-4.06 0.406-0.797 0.0219-1.59 0.0438-2.41 0.0664l-5.05 0.0547c-0.797 0.0219-1.59 0.0438-2.41 0.0664-0.731 0.00709-1.46 0.0142-2.21 0.0215-2.26 0.246-2.26 0.246-3.85 3.38-1.85 0.385-1.85 0.385-4.06 0.406-0.797 0.0219-1.59 0.0438-2.41 0.0664l-5.05 0.0547c-0.797 0.0219-1.59 0.0438-2.41 0.0664-0.731 0.00709-1.46 0.0142-2.21 0.0215-2.26 0.246-2.26 0.246-3.85 3.38-2.21 0.385-2.21 0.385-4.94 0.406-0.977 0.0219-1.95 0.0438-2.96 0.0664-2.07 0.0182-4.14 0.0365-6.2 0.0547-0.977 0.0219-1.95 0.0438-2.96 0.0664-0.898 0.00709-1.8 0.0142-2.72 0.0215-0.731 0.127-1.46 0.254-2.21 0.385-0.66 0.99-1.32 1.98-2 3-2.21 0.385-2.21 0.385-4.94 0.406-0.977 0.0219-1.95 0.0438-2.96 0.0664-2.07 0.0182-4.14 0.0365-6.2 0.0547-0.977 0.0219-1.95 0.0438-2.96 0.0664-0.898 0.00709-1.8 0.0142-2.72 0.0215-0.731 0.127-1.46 0.254-2.21 0.385-0.66 0.99-1.32 1.98-2 3-1.97 0.379-1.97 0.379-4.42 0.385-1.37 0.0152-1.37 0.0152-2.77 0.0306-0.99-0.00302-1.98-0.00604-3-0.00916-1.01 0.0108-2.03 0.0217-3.07 0.0328-4.35 0.046-8.7 0.0574-13 0.0721-3.17 0.0156-6.34 0.0486-9.51 0.0825-0.99-0.00302-1.98-0.00604-3-0.00916-1.37 0.0152-1.37 0.0152-2.77 0.0306-0.807 0.00205-1.61 0.00411-2.44 0.00623-0.651 0.125-1.3 0.25-1.97 0.379-0.66 0.99-1.32 1.98-2 3-1.97 0.379-1.97 0.379-4.42 0.385-1.37 0.0152-1.37 0.0152-2.77 0.0306-0.99-0.00302-1.98-0.00604-3-0.00916-1.01 0.0108-2.03 0.0217-3.07 0.0328-4.35 0.046-8.7 0.0574-13 0.0721-3.17 0.0156-6.34 0.0486-9.51 0.0825-0.99-0.00302-1.98-0.00604-3-0.00916-1.37 0.0152-1.37 0.0152-2.77 0.0306-0.807 0.00205-1.61 0.00411-2.44 0.00623-0.977 0.187-0.977 0.187-1.97 0.379-0.66 0.99-1.32 1.98-2 3-3.61 0.461-7.17 0.504-10.8 0.594-1.05 0.134-2.1 0.268-3.19 0.406-0.66 0.99-1.32 1.98-2 3-2.58 0.453-5.07 0.503-7.69 0.594-0.763 0.134-1.53 0.268-2.31 0.406-0.66 0.99-1.32 1.98-2 3-1.09 0.268-2.19 0.536-3.31 0.812-3.84 1.24-5.03 2.35-7.36 5.55-1.51 1.87-3.18 3.17-5.08 4.64-2.7 2.21-3.18 2.68-4 6.25-0.0825 0.908-0.165 1.82-0.25 2.75-0.99 0.66-1.98 1.32-3 2-0.165 0.99-0.33 1.98-0.5 3-0.165 0.99-0.33 1.98-0.5 3-0.99 0.66-1.98 1.32-3 2-0.58 2.19-0.58 2.19-0.688 4.62-0.0657 0.817-0.131 1.63-0.199 2.48-0.0561 0.94-0.0561 0.94-0.113 1.9 0.654 0.191 1.31 0.382 1.98 0.578 0.666 0.469 1.33 0.938 2.02 1.42 0.363 3.05 0.363 3.05 0.312 6.75 0.0777 5.07 0.0777 5.07 2.3 9.44 1.9 1.58 1.9 1.58 3.89 2.8 0.494 0.335 0.987 0.67 1.5 1.02v2c0.99 0.33 1.98 0.66 3 1 0.66 0.99 1.32 1.98 2 3 2.33 0.694 4.66 1.36 7 2 0.33 0.66 0.66 1.32 1 2 2.31 0.731 4.65 1.4 7 2v2c0.759 0.0374 1.52 0.0748 2.3 0.113 1.49 0.0986 1.49 0.0986 3.01 0.199 0.986 0.058 1.97 0.116 2.99 0.176 2.7 0.512 2.7 0.512 4.12 2.02 2.72 2.58 6.5 1.95 10.1 1.99 8.1 0.0947 8.1 0.0947 9.98 2 1.99 1.96 3.03 1.88 5.8 1.88 0.877 0.00946 1.75 0.0189 2.66 0.0287 0.964-0.00485 1.93-0.0097 2.92-0.0147 1.54 0.00997 1.54 0.00997 3.1 0.0201 3.45 0.0187 6.89 0.016 10.3 0.0135 2.46 0.00901 4.93 0.0193 7.39 0.0309 5.31 0.0219 10.6 0.0347 15.9 0.0391 7.68 0.00645 15.4 0.0294 23 0.0563 12.5 0.0433 24.9 0.0732 37.4 0.0948 12.1 0.021 24.2 0.0483 36.3 0.084 0.746 0.0022 1.49 0.0044 2.26 0.00666 3.74 0.0111 7.48 0.0223 11.2 0.0335 31.1 0.0932 62.1 0.165 93.2 0.222 0.66-1.32 1.32-2.64 2-4h38c0.66-1.32 1.32-2.64 2-4h26c0.66-1.32 1.32-2.64 2-4h18c0.66-1.32 1.32-2.64 2-4h18c0.66-1.32 1.32-2.64 2-4h14c0.66-1.32 1.32-2.64 2-4h18c0.66-1.32 1.32-2.64 2-4 0.976-0.0219 0.976-0.0219 1.97-0.0442 2.95-0.0745 5.89-0.171 8.84-0.268 1.02-0.0226 2.05-0.0451 3.1-0.0684 1.47-0.0532 1.47-0.0532 2.98-0.107 0.906-0.0262 1.81-0.0524 2.75-0.0793 2.78-0.509 3.49-1.41 5.36-3.43 2.62 0.188 2.62 0.188 5 1 0.33 0.66 0.66 1.32 1 2 2.36 0.468 2.36 0.468 5.06 0.625 0.919 0.0748 1.84 0.15 2.79 0.227 0.71 0.049 1.42 0.098 2.15 0.148l0.25 3.38c0.248 1.2 0.495 2.39 0.75 3.62 1.8 1.27 1.8 1.27 4 2 2.96 2.28 3.91 3.47 4.57 7.2 0.131 6.9 0.131 6.9 0.121 10 0.00121 2.15 0.0609 4.29 0.124 6.43 0.126 10 0.126 10-2.38 13.6-1.74 1.47-3.48 2.59-5.43 3.76-0.33 0.66-0.66 1.32-1 2-2.33 0.667-4.67 1.33-7 2-0.33 0.66-0.66 1.32-1 2-2.55 0.356-5.08 0.444-7.65 0.559-0.775 0.146-1.55 0.291-2.35 0.441-0.66 0.99-1.32 1.98-2 3-2.58 0.453-5.07 0.503-7.69 0.594-0.763 0.134-1.53 0.268-2.31 0.406l-2 3c-3.61 0.461-7.17 0.504-10.8 0.594-1.05 0.134-2.1 0.268-3.19 0.406l-2 3c-1.85 0.385-1.85 0.385-4.06 0.406-0.797 0.0219-1.59 0.0438-2.41 0.0664-1.68 0.0182-3.36 0.0365-5.05 0.0547-0.797 0.0219-1.59 0.0438-2.41 0.0664l-2.21 0.0215c-2.26 0.246-2.26 0.246-3.85 3.38-1.85 0.385-1.85 0.385-4.06 0.406-0.797 0.0219-1.59 0.0438-2.41 0.0664-1.68 0.0182-3.36 0.0365-5.05 0.0547-0.797 0.0219-1.59 0.0438-2.41 0.0664-0.731 0.00709-1.46 0.0142-2.21 0.0215-2.26 0.246-2.26 0.246-3.85 3.38-1.85 0.385-1.85 0.385-4.06 0.406-0.797 0.0219-1.59 0.0438-2.41 0.0664-1.68 0.0182-3.36 0.0365-5.05 0.0547-0.797 0.0219-1.59 0.0438-2.41 0.0664-0.731 0.00709-1.46 0.0142-2.21 0.0215-2.26 0.246-2.26 0.246-3.85 3.38-2.21 0.385-2.21 0.385-4.94 0.406-0.977 0.0219-1.95 0.0438-2.96 0.0664-2.07 0.0182-4.14 0.0365-6.2 0.0547-0.977 0.0219-1.95 0.0438-2.96 0.0664-1.35 0.0106-1.35 0.0106-2.72 0.0215-0.731 0.127-1.46 0.254-2.21 0.385-0.66 0.99-1.32 1.98-2 3-2.6 0.301-4.96 0.417-7.56 0.406-0.747 0.0108-1.49 0.0217-2.26 0.0328-3.2 0.046-6.4 0.0574-9.61 0.0721-2.34 0.0157-4.67 0.0487-7 0.0825-0.727-0.00302-1.45-0.00604-2.2-0.00916-2.26-2.55e-4 -2.26-2.55e-4 -5.36 0.415-0.66 0.99-1.32 1.98-2 3-2.06 0.373-2.06 0.373-4.67 0.369-0.99 0.00597-1.98 0.0119-3 0.0181-1.1-0.00874-2.19-0.0175-3.32-0.0265-1.16 0.00256-2.31 0.00513-3.51 0.00777-3.22 0.0041-6.44-0.00532-9.67-0.0203-3.47-0.0129-6.94-0.00857-10.4-0.00629-6.02 0.00158-12-0.00786-18.1-0.0247-8.7-0.0243-17.4-0.0322-26.1-0.036-14.1-0.00657-28.2-0.0265-42.3-0.0549-13.7-0.0275-27.4-0.0488-41.1-0.0615-0.845-7.88e-4 -1.69-0.00158-2.56-0.00239-4.24-0.00392-8.48-0.00771-12.7-0.0114-35.2-0.0311-70.4-0.084-106-0.151-0.66-1.32-1.32-2.64-2-4-0.656 0.0157-1.31 0.0314-1.99 0.0476-2.96 0.0622-5.92 0.101-8.89 0.14-1.55 0.0377-1.55 0.0377-3.13 0.0762-0.986 0.00967-1.97 0.0193-2.99 0.0293-0.911 0.0157-1.82 0.0314-2.76 0.0476-0.741-0.112-1.48-0.225-2.25-0.341-0.66-0.99-1.32-1.98-2-3-2.36-0.47-2.36-0.47-5-0.5-2.69-0.0938-2.69-0.0938-5-0.5-0.66-0.99-1.32-1.98-2-3-2.33-0.694-4.66-1.36-7-2-0.33-0.66-0.66-1.32-1-2-1.15-0.309-2.31-0.619-3.5-0.938-1.15-0.351-2.31-0.701-3.5-1.06-0.33-0.99-0.66-1.98-1-3h-6c-0.66-1.32-1.32-2.64-2-4h-6c-0.268-0.639-0.536-1.28-0.812-1.94-1.07-2.39-1.07-2.39-4.19-3.06-2.69-2.44-2.69-2.44-5-5v-2c-0.887 0.103-1.77 0.206-2.69 0.312-3.31-0.312-3.31-0.312-6.12-2.62-2.19-2.69-2.19-2.69-3.19-5.69-0.887 0.103-1.77 0.206-2.69 0.312-3.31-0.312-3.31-0.312-6.12-2.62-2.19-2.69-2.19-2.69-3.19-5.69-0.887 0.103-1.77 0.206-2.69 0.312-3.31-0.312-3.31-0.312-6.12-2.62-2.19-2.69-2.19-2.69-3.19-5.69-0.99-0.33-1.98-0.66-3-1-0.33-0.66-0.66-1.32-1-2-1.15-0.33-2.31-0.66-3.5-1-1.15-0.33-2.31-0.66-3.5-1-0.33-0.66-0.66-1.32-1-2-1.07-0.268-2.14-0.536-3.25-0.812-4.19-1.33-5.98-2.83-8.75-6.19v-2c-1.32-0.66-2.64-1.32-4-2v-2h-6c-0.268-0.639-0.536-1.28-0.812-1.94-1.07-2.39-1.07-2.39-4.19-3.06-0.33-0.66-0.66-1.32-1-2-1.73-0.464-1.73-0.464-3.5-0.938-1.15-0.351-2.31-0.701-3.5-1.06-0.33-0.99-0.66-1.98-1-3-2-1.21-2-1.21-4-2v-2h-6c-0.248-0.619-0.495-1.24-0.75-1.88-1.46-2.48-2.63-3.08-5.25-4.12v-2h-6c-0.248-0.619-0.495-1.24-0.75-1.88-1.46-2.48-2.63-3.08-5.25-4.12v-2h-6c-0.248-0.619-0.495-1.24-0.75-1.88-1.46-2.48-2.63-3.08-5.25-4.12v-2h-6c-0.248-0.619-0.495-1.24-0.75-1.88-1.46-2.48-2.63-3.08-5.25-4.12v-2h-6c-0.248-0.619-0.495-1.24-0.75-1.88-1.46-2.48-2.63-3.08-5.25-4.12v-2h-6c-0.248-0.619-0.495-1.24-0.75-1.88-1.46-2.48-2.63-3.08-5.25-4.12v-2h-6c-0.248-0.619-0.495-1.24-0.75-1.88-1.46-2.48-2.63-3.08-5.25-4.12v-2h-6c-0.248-0.619-0.495-1.24-0.75-1.88-1.46-2.48-2.63-3.08-5.25-4.12v-2h-6c-0.248-0.619-0.495-1.24-0.75-1.88-1.46-2.48-2.63-3.08-5.25-4.12v-2h-6c-0.248-0.619-0.495-1.24-0.75-1.88-1.46-2.48-2.63-3.08-5.25-4.12v-2h-6c-0.248-0.619-0.495-1.24-0.75-1.88-1.46-2.48-2.63-3.08-5.25-4.12v-2h-6c-0.248-0.619-0.495-1.24-0.75-1.88-1.46-2.48-2.63-3.08-5.25-4.12v-2h-6c-0.248-0.619-0.495-1.24-0.75-1.88-1.46-2.48-2.63-3.08-5.25-4.12v-2h-6c-0.248-0.619-0.495-1.24-0.75-1.88-1.46-2.48-2.63-3.08-5.25-4.12v-2h-6c-0.248-0.619-0.495-1.24-0.75-1.88-1.46-2.48-2.63-3.08-5.25-4.12v-2h-6c-0.402-0.959-0.402-0.959-0.812-1.94-1.07-2.39-1.07-2.39-4.19-3.06-0.33-0.66-0.66-1.32-1-2-1.16-0.309-2.31-0.619-3.5-0.938-1.16-0.351-2.31-0.701-3.5-1.06-0.33-0.99-0.66-1.98-1-3-1.82-1.12-1.82-1.12-4-2-2.67-1.33-5.33-2.67-8-4v-2c-0.99-0.33-1.98-0.66-3-1-0.33-0.66-0.66-1.32-1-2-1.16-0.309-2.31-0.619-3.5-0.938-1.16-0.351-2.31-0.701-3.5-1.06-0.33-0.99-0.66-1.98-1-3-1.7-1.07-1.7-1.07-4-2-2.38-1.16-4.75-2.33-7.12-3.5-0.633-0.308-1.27-0.616-1.92-0.934-2.68-1.32-4.83-2.44-6.96-4.57-1.48-0.186-1.48-0.186-3-0.375-3-0.625-3-0.625-4.38-2.69-0.206-0.639-0.412-1.28-0.625-1.94-0.949 0.0619-1.9 0.124-2.88 0.188-1.03-0.0619-2.06-0.124-3.12-0.188-0.66-0.99-1.32-1.98-2-3-2.36-0.47-2.36-0.47-5-0.5-2.69-0.0938-2.69-0.0938-5-0.5-0.66-0.99-1.32-1.98-2-3-2.58-0.414-5.08-0.439-7.69-0.496-2.31-0.504-2.31-0.504-3.62-2.54-0.227-0.648-0.454-1.3-0.688-1.96-0.904 0.0232-1.81 0.0464-2.74 0.0703-1.18 0.018-2.36 0.0361-3.57 0.0547-1.17 0.0232-2.34 0.0464-3.55 0.0703-3.14-0.195-3.14-0.195-6.14-2.2v-2c-3.46 0.0806-6.92 0.193-10.4 0.312-0.985 0.0226-1.97 0.0451-2.98 0.0684-0.941 0.0354-1.88 0.0709-2.85 0.107-0.869 0.0262-1.74 0.0524-2.63 0.0793-2.54 0.246-2.54 0.246-4.15 3.43-3.05 0.266-3.05 0.266-6.75 0.25-4.99 0.127-4.99 0.127-9.33 2.22-1.43 1.78-2.67 3.61-3.92 5.53-4.51 4-4.51 4-7 4-0.0923 0.609-0.185 1.22-0.28 1.85-0.9 2.69-1.88 3.13-4.24 4.61-2.54 2.06-3.38 3.1-4.1 6.34-0.175 3.34-0.136 6.61-0.00293 9.96 0.00645 1.15 0.0129 2.3 0.0195 3.48 0.0588 4.41 0.0588 4.41 0.605 8.77l3 2c0.0825 0.908 0.165 1.82 0.25 2.75 0.971 4.21 2.81 5.18 6.11 7.75 2.33 2.14 2.75 4.52 3.64 7.5 2.29 2.62 2.29 2.62 5 5 1.7 1.63 3.38 3.29 5 5v2c0.99 0.33 1.98 0.66 3 1 1.5 1.56 1.5 1.56 3 3.44 1.96 2.45 3.32 3.78 6 5.56v2c2.31 0.33 4.62 0.66 7 1 0.33 0.99 0.66 1.98 1 3 2 1.21 2 1.21 4 2v2c0.619 0.289 1.24 0.577 1.88 0.875 2.12 1.12 2.12 1.12 4.12 3.12 1.98 0.714 3.98 1.39 6 2v2c0.639 0.289 1.28 0.577 1.94 0.875 2.06 1.12 2.06 1.12 3.06 3.12 2.31 0.731 4.65 1.4 7 2v2c0.557 0.206 1.11 0.412 1.69 0.625 2.31 1.38 2.31 1.38 4.62 4.38 2.77 3.55 5.34 4.15 9.69 5v2c0.639 0.289 1.28 0.577 1.94 0.875 2.06 1.12 2.06 1.12 3.06 3.12 1.64 0.433 1.64 0.433 3.31 0.875 3.78 1.15 5.29 2.06 7.69 5.12v2c1.32 0.66 2.64 1.32 4 2v2c1.03 0.0206 2.06 0.0412 3.12 0.0625 4.69 1.14 5.53 2.61 8.32 6.28 2.51 2.68 5.01 3.02 8.55 3.66v2c0.639 0.289 1.28 0.577 1.94 0.875 2.06 1.12 2.06 1.12 3.06 3.12 3.03 0.658 3.03 0.658 6 1v2h2c0.557 0.784 1.11 1.57 1.69 2.38 2.86 3.25 5.15 3.74 9.31 4.62v2c0.639 0.289 1.28 0.577 1.94 0.875 2.06 1.12 2.06 1.12 3.06 3.12 1.07 0.247 2.14 0.495 3.25 0.75 4.56 1.52 5.73 3.62 8.75 7.25 2.35 1.06 4.44 1.5 7 2v2c0.639 0.289 1.28 0.577 1.94 0.875 2.06 1.12 2.06 1.12 3.06 3.12 3.03 0.658 3.03 0.658 6 1v2h2c0.557 0.784 1.11 1.57 1.69 2.38 2.86 3.25 5.15 3.74 9.31 4.62v2c0.639 0.289 1.28 0.577 1.94 0.875 2.06 1.12 2.06 1.12 3.06 3.12 3.03 0.658 3.03 0.658 6 1v2c0.619 0.268 1.24 0.536 1.88 0.812 2.12 1.19 2.12 1.19 4.12 4.19 3.56 1.22 3.56 1.22 7 2v2c0.639 0.289 1.28 0.577 1.94 0.875 2.06 1.12 2.06 1.12 3.06 3.12 3.03 0.658 3.03 0.658 6 1v2c0.619 0.268 1.24 0.536 1.88 0.812 2.12 1.19 2.12 1.19 4.12 4.19 3.56 1.22 3.56 1.22 7 2v2c0.639 0.289 1.28 0.577 1.94 0.875 2.06 1.12 2.06 1.12 3.06 3.12 3.03 0.658 3.03 0.658 6 1v2c0.619 0.268 1.24 0.536 1.88 0.812 2.13 1.19 2.13 1.19 4.12 4.19 3.56 1.22 3.56 1.22 7 2v2c0.639 0.289 1.28 0.577 1.94 0.875 2.06 1.12 2.06 1.12 3.06 3.12 3.03 0.658 3.03 0.658 6 1v2c0.619 0.268 1.24 0.536 1.88 0.812 2.12 1.19 2.12 1.19 4.12 4.19 3.56 1.22 3.56 1.22 7 2v2c0.639 0.289 1.28 0.577 1.94 0.875 2.06 1.12 2.06 1.12 3.06 3.12 3.03 0.658 3.03 0.658 6 1v2h2c0.835 1.18 0.835 1.18 1.69 2.38 2.86 3.25 5.15 3.74 9.31 4.62v2c0.639 0.289 1.28 0.577 1.94 0.875 2.06 1.12 2.06 1.12 3.06 3.12 3.03 0.658 3.03 0.658 6 1v2c0.619 0.268 1.24 0.536 1.88 0.812 2.12 1.19 2.12 1.19 4.12 4.19 3.56 1.22 3.56 1.22 7 2v2c0.639 0.289 1.28 0.577 1.94 0.875 2.06 1.12 2.06 1.12 3.06 3.12 2.31 0.731 4.65 1.4 7 2v2c1.05 0.0619 2.1 0.124 3.19 0.188 4.46 0.951 5.99 2.3 8.81 5.81v2c1.32 0.66 2.64 1.32 4 2v2c2.31 0.33 4.62 0.66 7 1 0.33 0.99 0.66 1.98 1 3 1.03 0.0206 2.06 0.0412 3.12 0.0625 4.7 1.14 5.54 2.62 8.34 6.3 2.35 2.5 5.29 2.75 8.54 3.63 1.67 2 3.33 4 5 6 2.35 1.06 4.44 1.5 7 2v2c0.99 0.33 1.98 0.66 3 1 0.66 0.99 1.32 1.98 2 3 3.56 1.22 3.56 1.22 7 2v2c1.03 0.0206 2.06 0.0412 3.12 0.0625 5.19 1.25 6.79 3.8 9.88 7.94 3.29 3.93 6.09 4.7 11 6 0.33 0.66 0.66 1.32 1 2 0.887 0.0619 1.77 0.124 2.69 0.188 3.68 0.902 4.06 1.4 6.25 4.25 2.94 3.81 5.43 4.3 10.1 5.56 1.67 2 3.33 4 5 6 2.35 1.06 4.44 1.5 7 2v2c0.639 0.289 1.28 0.577 1.94 0.875 2.06 1.12 2.06 1.12 3.06 3.12 1.07 0.248 2.14 0.495 3.25 0.75 4.56 1.52 5.73 3.62 8.75 7.25 2.35 1.06 4.44 1.5 7 2v2c0.639 0.289 1.28 0.577 1.94 0.875 2.06 1.12 2.06 1.12 3.06 3.12 3.03 0.658 3.03 0.658 6 1v2c0.619 0.268 1.24 0.536 1.88 0.812 2.12 1.19 2.12 1.19 4.12 4.19 3.56 1.22 3.56 1.22 7 2v2c0.639 0.289 1.28 0.577 1.94 0.875 2.06 1.12 2.06 1.12 3.06 3.12 2.31 0.731 4.65 1.4 7 2v2c1.03 0.0206 2.06 0.0412 3.12 0.0625 4.69 1.14 5.54 2.61 8.32 6.29 2.49 2.65 5.07 2.9 8.55 3.65 0.33 0.66 0.66 1.32 1 2 0.887 0.0619 1.77 0.124 2.69 0.188 3.68 0.902 4.06 1.4 6.25 4.25 3 3.88 5.29 4.7 10.1 5.56v2c0.639 0.289 1.28 0.577 1.94 0.875 2.06 1.12 2.06 1.12 3.06 3.12 0.99 0.165 1.98 0.33 3 0.5 0.99 0.165 1.98 0.33 3 0.5 0.33 0.66 0.66 1.32 1 2 2.31 0.731 4.65 1.4 7 2v2c0.598 0.268 1.2 0.536 1.81 0.812 2.19 1.19 2.19 1.19 3.56 2.69 2.25 2.08 4.73 2.58 7.62 3.5 0.66 0.66 1.32 1.32 2 2 1.98 0.714 3.98 1.39 6 2v2c0.639 0.289 1.28 0.577 1.94 0.875 2.06 1.12 2.06 1.12 3.06 3.12 2.19 0.503 2.19 0.503 4.75 0.812 4.83 0.857 7.13 2.27 10.2 6.19 1.66 1.66 3.78 1.36 6.06 1.56 0.919 0.0838 1.84 0.168 2.79 0.254 0.71 0.0606 1.42 0.121 2.15 0.184 0.33 0.99 0.66 1.98 1 3 1.09 0.103 2.19 0.206 3.31 0.312 3.69 0.688 3.69 0.688 5 2.19 2.57 2.29 5 2.02 8.38 2.19 1.18 0.0657 2.36 0.131 3.57 0.199 0.904 0.0374 1.81 0.0748 2.74 0.113 0.33 0.99 0.66 1.98 1 3 0.681 0.0146 1.36 0.0292 2.06 0.0442 3.08 0.0744 6.17 0.171 9.25 0.268 1.07 0.0226 2.14 0.0451 3.25 0.0684 1.03 0.0354 2.06 0.0709 3.12 0.107 1.42 0.0393 1.42 0.0393 2.87 0.0793 2.87 0.506 3.53 1.34 5.45 3.43 3.42 0.582 3.42 0.582 7.19 0.688 1.27 0.0657 2.54 0.131 3.86 0.199 1.46 0.0561 1.46 0.0561 2.96 0.113 0.66-1.32 1.32-2.64 2-4h22c0.66-1.32 1.32-2.64 2-4h14c0.66-1.32 1.32-2.64 2-4h10c0.66-1.32 1.32-2.64 2-4h10c0.66-1.32 1.32-2.64 2-4h10c0.66-1.32 1.32-2.64 2-4 1.99-0.381 3.99-0.713 6-1l1.56-1.56c1.44-1.44 1.44-1.44 4.12-1.62 1.14 0.0928 1.14 0.0928 2.31 0.188 0.66-1.32 1.32-2.64 2-4h6c0.33-0.99 0.66-1.98 1-3l3.38-0.25c1.2-0.248 2.39-0.495 3.62-0.75 0.699-1.32 1.37-2.65 2-4 1.99-0.381 3.99-0.713 6-1l1.56-1.56c1.44-1.44 1.44-1.44 4.12-1.62 1.14 0.0928 1.14 0.0928 2.31 0.188 0.66-1.32 1.32-2.64 2-4h6c0.206-0.639 0.412-1.28 0.625-1.94 0.454-0.681 0.908-1.36 1.38-2.06 1.99-0.381 3.99-0.713 6-1l1.56-1.56c1.44-1.44 1.44-1.44 4.12-1.62 1.14 0.0928 1.14 0.0928 2.31 0.188 0.66-1.32 1.32-2.64 2-4h2c0.206-0.639 0.412-1.28 0.625-1.94 0.454-0.681 0.908-1.36 1.38-2.06 1.99-0.381 3.99-0.713 6-1l1.56-1.56c1.44-1.44 1.44-1.44 4.12-1.62 1.14 0.0928 1.14 0.0928 2.31 0.188 0.66-1.32 1.32-2.64 2-4h6c0.66-1.32 1.32-2.64 2-4h6c0.66-1.32 1.32-2.64 2-4h6c0.66-1.32 1.32-2.64 2-4h6c0.66-1.32 1.32-2.64 2-4h6c0.66-1.32 1.32-2.64 2-4h6c0.66-1.32 1.32-2.64 2-4h6c0.66-1.32 1.32-2.64 2-4h6c0.33-1.32 0.66-2.64 1-4 1.32-0.33 2.64-0.66 4-1v-2c1.09-0.268 2.19-0.536 3.31-0.812 3.6-0.848 3.6-0.848 5.31-2.81 1.38-1.38 1.38-1.38 4.06-1.56 0.763 0.0619 1.53 0.124 2.31 0.188 0.66-1.32 1.32-2.64 2-4h6c0.206-0.639 0.412-1.28 0.625-1.94 0.454-0.681 0.908-1.36 1.38-2.06 1.99-0.381 3.99-0.713 6-1l1.56-1.56c1.44-1.44 1.44-1.44 4.12-1.62 0.763 0.0619 1.53 0.124 2.31 0.188 0.206-0.639 0.412-1.28 0.625-1.94 0.454-0.681 0.908-1.36 1.38-2.06 1.99-0.381 3.99-0.713 6-1l1.56-1.56c1.44-1.44 1.44-1.44 4.12-1.62 0.763 0.0619 1.53 0.124 2.31 0.188 0.309-0.959 0.309-0.959 0.625-1.94 0.454-0.681 0.908-1.36 1.38-2.06 1.99-0.381 3.99-0.713 6-1l1.56-1.56c1.44-1.44 1.44-1.44 4.12-1.62 0.763 0.0619 1.53 0.124 2.31 0.188 0.66-1.32 1.32-2.64 2-4h6c0.309-0.959 0.309-0.959 0.625-1.94 0.454-0.681 0.908-1.36 1.38-2.06 1.99-0.381 3.99-0.713 6-1l1.56-1.56c1.44-1.44 1.44-1.44 4.12-1.62 0.763 0.0619 1.53 0.124 2.31 0.188 0.66-1.32 1.32-2.64 2-4h2c0.309-0.959 0.309-0.959 0.625-1.94 0.454-0.681 0.908-1.36 1.38-2.06 1.99-0.381 3.99-0.713 6-1l1.56-1.56c1.44-1.44 1.44-1.44 4.12-1.62 0.763 0.0619 1.53 0.124 2.31 0.188 0.66-1.32 1.32-2.64 2-4h6c0.66-1.32 1.32-2.64 2-4h6c0.66-1.32 1.32-2.64 2-4h6c0.66-1.32 1.32-2.64 2-4h6c0.66-1.32 1.32-2.64 2-4h6c0.66-1.32 1.32-2.64 2-4h6c0.66-1.32 1.32-2.64 2-4h10c0.66-1.32 1.32-2.64 2-4h6c0.66-1.32 1.32-2.64 2-4h14c0.66-1.32 1.32-2.64 2-4h22v-3c3.88 0.875 3.88 0.875 5 2 1.6 0.121 3.2 0.18 4.8 0.211 0.976 0.0284 1.95 0.0567 2.96 0.0859 2.07 0.0519 4.14 0.0962 6.2 0.133 1.47 0.0464 1.47 0.0464 2.96 0.0938 0.9 0.0198 1.8 0.0396 2.73 0.0601 2.77 0.492 3.53 1.34 5.34 3.42 1.98 0.498 1.98 0.498 4.06 0.562 3.94 0.438 3.94 0.438 5.94 2.44 1.16 0.309 2.31 0.619 3.5 0.938 3.5 1.06 3.5 1.06 5.5 4.06 2.43 0.582 2.43 0.582 5.12 0.688 0.91 0.0657 1.82 0.131 2.76 0.199 0.699 0.0374 1.4 0.0748 2.12 0.113 0.33 0.99 0.66 1.98 1 3 1.32 0.699 2.65 1.37 4 2 0.33 0.66 0.66 1.32 1 2 0.99 0.165 1.98 0.33 3 0.5 0.99 0.165 1.98 0.33 3 0.5 0.33 0.66 0.66 1.32 1 2 2.31 0.731 4.65 1.4 7 2v2c0.897 0.402 0.897 0.402 1.81 0.812 2.19 1.19 2.19 1.19 3.56 2.69 2.25 2.07 4.75 2.56 7.62 3.5 0.33 0.66 0.66 1.32 1 2 0.908 0.103 1.82 0.206 2.75 0.312 4.11 0.869 5.52 2.58 8.25 5.69 2.46 2.46 4.71 3 8 4v2c0.835 0.309 0.835 0.309 1.69 0.625 2.31 1.38 2.31 1.38 4.62 4.38 2.77 3.55 5.34 4.15 9.69 5v2c0.959 0.433 0.959 0.433 1.94 0.875 2.06 1.12 2.06 1.12 3.06 3.12 2.31 0.731 4.65 1.4 7 2v2c0.959 0.433 0.959 0.433 1.94 0.875 2.06 1.12 2.06 1.12 3.06 3.12 2.31 0.731 4.65 1.4 7 2v2c1.32 0.66 2.64 1.32 4 2v2c1.05 0.0412 2.1 0.0825 3.19 0.125 4.83 1.11 5.92 2.97 8.81 6.88 1.33 1.01 2.66 2.01 4 3v2c0.99 0.33 1.98 0.66 3 1 1.5 1.56 1.5 1.56 3 3.44 1.96 2.45 3.32 3.78 6 5.56v2c1.32 0.66 2.64 1.32 4 2 0.19 3.04 0.328 6.08 0.438 9.12 0.0587 0.856 0.117 1.71 0.178 2.59 0.17 6.3 0.17 6.3-2.1 9.13-1.77 1.51-3.61 2.82-5.52 4.15-0.529 0.548-1.06 1.1-1.6 1.66-1.4 1.34-1.4 1.34-3.4 1.34-1.41 2.52-2.17 4.66-2.88 7.5-1.23 3.82-1.96 5.12-5.12 7.5-2.71 0.373-4.93 0.517-7.62 0.438-0.681 0.00709-1.36 0.0142-2.06 0.0215-1.98-0.0254-1.98-0.0254-5.31-0.459-0.66-0.99-1.32-1.98-2-3-1.09-0.289-2.19-0.577-3.31-0.875-4.18-1.28-5.93-2.79-8.69-6.12v-2c-2.31-0.33-4.62-0.66-7-1-0.33-0.99-0.66-1.98-1-3-1.02 0.186-1.02 0.186-2.06 0.375-4.35-0.555-7.05-3.16-9.94-6.38v-2h-6c-0.268-0.639-0.536-1.28-0.812-1.94-1.07-2.39-1.07-2.39-4.19-3.06-0.33-0.66-0.66-1.32-1-2-1.16-0.33-2.31-0.66-3.5-1-1.16-0.33-2.31-0.66-3.5-1-0.33-0.66-0.66-1.32-1-2-1.45-0.186-1.45-0.186-2.94-0.375-1.01-0.206-2.02-0.412-3.06-0.625-1.12-1.94-1.12-1.94-2-4-2.03-1.27-2.03-1.27-4-2v-2c-1.33 0.155-1.33 0.155-2.69 0.312-3.31-0.312-3.31-0.312-6.12-2.62-2.19-2.69-2.19-2.69-3.19-5.69h-6c-0.66-1.32-1.32-2.64-2-4h-2c-0.66-1.32-1.32-2.64-2-4l-2.88 0.188c-1.03-0.0619-2.06-0.124-3.12-0.188-0.66-0.99-1.32-1.98-2-3-1.18-0.33-2.35-0.66-3.56-1-1.13-0.33-2.27-0.66-3.44-1-0.33-0.99-0.66-1.98-1-3-0.99-0.33-1.98-0.66-3-1-0.33-0.66-0.66-1.32-1-2-1.16-0.309-2.31-0.619-3.5-0.938-1.16-0.351-2.31-0.701-3.5-1.06-0.33-0.99-0.66-1.98-1-3l-2.88 0.188c-1.03-0.0619-2.06-0.124-3.12-0.188-0.66-0.99-1.32-1.98-2-3-1.95-1-1.95-1-4.12-1.69-0.724-0.251-1.45-0.503-2.2-0.762-0.554-0.182-1.11-0.364-1.68-0.551v-2c-1.13-0.124-2.27-0.247-3.44-0.375-1.18-0.206-2.35-0.412-3.56-0.625-0.33-0.66-0.66-1.32-1-2-3.46-0.0868-6.92-0.14-10.4-0.188-0.985-0.0251-1.97-0.0503-2.98-0.0762-0.941-0.00967-1.88-0.0193-2.85-0.0293-0.869-0.0157-1.74-0.0314-2.63-0.0476-0.711 0.112-1.42 0.225-2.15 0.341-0.66 0.99-1.32 1.98-2 3-3.62 0.688-3.62 0.688-7 1-0.33 0.99-0.66 1.98-1 3-0.699 0.0374-1.4 0.0748-2.12 0.113-0.91 0.0657-1.82 0.131-2.76 0.199-0.905 0.058-1.81 0.116-2.74 0.176-2.75 0.3-2.75 0.3-4.38 3.51-2.33 0.694-4.66 1.36-7 2-0.33 0.66-0.66 1.32-1 2-2.33 0.667-4.67 1.33-7 2-0.33 0.66-0.66 1.32-1 2-2.33 0.667-4.67 1.33-7 2-0.33 0.66-0.66 1.32-1 2-2.33 0.667-4.67 1.33-7 2-0.33 0.66-0.66 1.32-1 2-2.33 0.667-4.67 1.33-7 2-0.33 0.66-0.66 1.32-1 2-2.33 0.667-4.67 1.33-7 2-0.33 0.66-0.66 1.32-1 2-2.33 0.667-4.67 1.33-7 2-0.33 0.66-0.66 1.32-1 2-2.33 0.667-4.67 1.33-7 2-0.33 0.66-0.66 1.32-1 2-2.33 0.667-4.67 1.33-7 2-0.33 0.66-0.66 1.32-1 2-2.33 0.667-4.67 1.33-7 2-0.33 0.66-0.66 1.32-1 2-2.33 0.667-4.67 1.33-7 2-0.33 0.66-0.66 1.32-1 2-1.95 0.186-1.95 0.186-3.94 0.375-2.15 0.173-2.15 0.173-4.06 0.625-1.48 1.8-1.48 1.8-2 4-2 3-2 3-4.19 3.69-3.29 0.365-6.51 0.377-9.81 0.312-0.289 0.598-0.578 1.2-0.875 1.81-1.13 2.19-1.13 2.19-3.12 5.19-3.62 0.688-3.62 0.688-7 1-0.33 0.99-0.66 1.98-1 3-2.32 0.705-4.66 1.37-7 2-0.33 0.66-0.66 1.32-1 2-2.32 0.407-4.66 0.744-7 1-0.33 0.99-0.66 1.98-1 3-2.31 0.33-4.62 0.66-7 1-0.33 0.99-0.66 1.98-1 3-1.07 0.268-2.14 0.536-3.25 0.812-4.15 1.32-4.72 2.46-7.15 5.86-3.39 2.83-8.36 2.32-12.6 2.33-0.33 0.99-0.66 1.98-1 3-2.31 0.33-4.62 0.66-7 1-0.33 0.99-0.66 1.98-1 3-1.07 0.268-2.14 0.536-3.25 0.812-3.95 0.88-3.95 0.88-6.25 4.19-2.98 3.58-5.06 3.97-9.5 5-0.33 0.66-0.66 1.32-1 2-2.33 0.667-4.67 1.33-7 2-0.33 0.66-0.66 1.32-1 2-2.65 0.594-5.29 0.742-8 1l-1 3c-1.99 0.704-3.99 1.37-6 2-0.33 0.66-0.66 1.32-1 2-2.33 0.667-4.67 1.33-7 2-0.33 0.66-0.66 1.32-1 2-2.33 0.667-4.67 1.33-7 2-0.33 0.66-0.66 1.32-1 2-2.33 0.667-4.67 1.33-7 2-0.33 0.66-0.66 1.32-1 2-2.33 0.667-4.67 1.33-7 2-0.33 0.66-0.66 1.32-1 2-2.65 0.594-5.29 0.742-8 1-0.33 0.99-0.66 1.98-1 3-1.99 0.704-3.99 1.37-6 2-0.33 0.66-0.66 1.32-1 2-2.65 0.594-5.29 0.742-8 1-0.33 0.99-0.66 1.98-1 3-1.99 0.704-3.99 1.37-6 2-0.33 0.66-0.66 1.32-1 2-2.33 0.667-4.67 1.33-7 2-0.33 0.66-0.66 1.32-1 2-2.33 0.667-4.67 1.33-7 2-0.33 0.66-0.66 1.32-1 2-2.33 0.667-4.67 1.33-7 2-0.33 0.66-0.66 1.32-1 2-2.33 0.667-4.67 1.33-7 2-0.33 0.66-0.66 1.32-1 2-2.55 0.356-5.08 0.444-7.65 0.559-0.775 0.146-1.55 0.291-2.35 0.441-0.66 0.99-1.32 1.98-2 3-3.63 0.688-3.63 0.688-7 1-0.33 0.99-0.66 1.98-1 3-0.699 0.0374-1.4 0.0748-2.12 0.113-0.91 0.0657-1.82 0.131-2.76 0.199-0.905 0.058-1.81 0.116-2.74 0.176-2.75 0.3-2.75 0.3-4.38 3.51-2.33 0.694-4.66 1.36-7 2-0.33 0.66-0.66 1.32-1 2-3.59 0.359-7.17 0.445-10.8 0.559-1.06 0.146-2.13 0.291-3.22 0.441-0.66 0.99-1.32 1.98-2 3-3.61 0.461-7.17 0.504-10.8 0.594l-3.19 0.406c-0.66 0.99-1.32 1.98-2 3-2.58 0.414-5.08 0.439-7.69 0.496-0.763 0.166-1.53 0.333-2.31 0.504-0.66 1.32-1.32 2.64-2 4h-68c-0.33-1.32-0.66-2.64-1-4-1.48-0.0561-1.48-0.0561-2.99-0.113-1.28-0.0657-2.56-0.131-3.88-0.199-1.91-0.087-1.91-0.087-3.87-0.176-1.08-0.169-2.15-0.338-3.26-0.512-0.66-0.99-1.32-1.98-2-3-2.36-0.47-2.36-0.47-5-0.5-2.69-0.0938-2.69-0.0938-5-0.5-0.66-0.99-1.32-1.98-2-3-1.18-0.33-2.35-0.66-3.56-1-1.13-0.33-2.27-0.66-3.44-1-0.33-0.99-0.66-1.98-1-3-0.615 0.0232-1.23 0.0464-1.86 0.0703-1.21 0.0271-1.21 0.0271-2.45 0.0547-0.801 0.0232-1.6 0.0464-2.43 0.0703-2.26-0.195-2.26-0.195-5.26-2.2v-2h-6c-0.66-1.32-1.32-2.64-2-4-1.42 0.0928-1.42 0.0928-2.88 0.188-1.03-0.0619-2.06-0.124-3.12-0.188-0.66-0.99-1.32-1.98-2-3-0.99-0.144-1.98-0.289-3-0.438-0.99-0.186-1.98-0.371-3-0.562-0.309-0.66-0.619-1.32-0.938-2-0.351-0.66-0.701-1.32-1.06-2-2.32-0.407-4.66-0.744-7-1-0.33-0.66-0.66-1.32-1-2-1.15-0.309-2.31-0.619-3.5-0.938-1.15-0.351-2.31-0.701-3.5-1.06-0.33-0.99-0.66-1.98-1-3-2.31-0.33-4.62-0.66-7-1-0.33-0.99-0.66-1.98-1-3-2-1.21-2-1.21-4-2v-2c-1.14 0.0619-1.14 0.0619-2.31 0.125-2.69-0.125-2.69-0.125-5.69-2.12v-2c-1.14 0.0619-1.14 0.0619-2.31 0.125-2.69-0.125-2.69-0.125-5.69-2.12v-2c-1.32-0.66-2.64-1.32-4-2v-2h-6c-0.66-1.32-1.32-2.64-2-4-0.887 0.103-1.77 0.206-2.69 0.312-3.31-0.312-3.31-0.312-6.12-2.62-2.19-2.69-2.19-2.69-3.19-5.69-1.14 0.0619-1.14 0.0619-2.31 0.125-2.69-0.125-2.69-0.125-5.69-2.12v-2c-1.32-0.66-2.64-1.32-4-2v-2c-1.05-0.0619-2.1-0.124-3.19-0.188-4.46-0.951-5.99-2.3-8.81-5.81v-2c-1.42 0.0619-1.42 0.0619-2.88 0.125-3.97-0.159-4.42-1.42-7.12-4.12-0.697-1.32-1.37-2.65-2-4h-6c-0.66-1.32-1.32-2.64-2-4h-6c-0.247-0.619-0.495-1.24-0.75-1.88-1.46-2.48-2.63-3.08-5.25-4.12v-2h-2c-0.66-1.32-1.32-2.64-2-4h-6c-0.66-1.32-1.32-2.64-2-4h-6c-0.247-0.619-0.495-1.24-0.75-1.88-1.46-2.48-2.63-3.08-5.25-4.12v-2c-2.31-0.33-4.62-0.66-7-1-0.33-0.99-0.66-1.98-1-3-2-1.21-2-1.21-4-2v-2h-6c-0.248-0.619-0.495-1.24-0.75-1.88-1.46-2.48-2.63-3.08-5.25-4.12v-2h-6c-0.248-0.619-0.495-1.24-0.75-1.88-1.46-2.48-2.63-3.08-5.25-4.12v-2h-6c-0.248-0.619-0.495-1.24-0.75-1.88-1.46-2.48-2.63-3.08-5.25-4.12v-2h-6c-0.248-0.619-0.495-1.24-0.75-1.88-1.46-2.48-2.63-3.08-5.25-4.12v-2h-6c-0.66-1.32-1.32-2.64-2-4-1.33 0.155-1.33 0.155-2.69 0.312-3.31-0.312-3.31-0.312-6.12-2.62-2.19-2.69-2.19-2.69-3.19-5.69-0.99-0.33-1.98-0.66-3-1-0.33-0.66-0.66-1.32-1-2-1.15-0.309-2.31-0.619-3.5-0.938-1.15-0.351-2.31-0.701-3.5-1.06-0.33-0.99-0.66-1.98-1-3-1.33 0.155-1.33 0.155-2.69 0.312-3.31-0.312-3.31-0.312-6.12-2.62-2.19-2.69-2.19-2.69-3.19-5.69h-6c-0.66-1.32-1.32-2.64-2-4h-2c-0.186-0.639-0.371-1.28-0.562-1.94-0.474-0.681-0.949-1.36-1.44-2.06-1.09-0.144-2.19-0.289-3.31-0.438-4.49-0.686-5.88-2.08-8.69-5.56v-2h-6c-0.66-1.32-1.32-2.64-2-4h-2c-0.186-0.639-0.371-1.28-0.562-1.94-0.474-0.681-0.949-1.36-1.44-2.06-1.09-0.144-2.19-0.289-3.31-0.438-4.49-0.686-5.88-2.08-8.69-5.56v-2h-6c-0.66-1.32-1.32-2.64-2-4h-2c-0.186-0.639-0.371-1.28-0.562-1.94-0.474-0.681-0.949-1.36-1.44-2.06-1.09-0.144-2.19-0.289-3.31-0.438-4.49-0.686-5.88-2.08-8.69-5.56v-2h-6c-0.66-1.32-1.32-2.64-2-4h-2c-0.186-0.639-0.371-1.28-0.562-1.94-0.474-0.681-0.949-1.36-1.44-2.06-1.09-0.144-2.19-0.289-3.31-0.438-4.49-0.686-5.88-2.08-8.69-5.56v-2h-6c-0.66-1.32-1.32-2.64-2-4h-2c-0.186-0.639-0.371-1.28-0.562-1.94-0.474-0.681-0.949-1.36-1.44-2.06-1.09-0.144-2.19-0.289-3.31-0.438-4.49-0.686-5.88-2.08-8.69-5.56v-2c-0.887 0.124-1.77 0.247-2.69 0.375-3.62-0.41-3.94-0.618-6.12-3.25-2.19-3.12-2.19-3.12-3.19-5.12-0.887 0.103-1.77 0.206-2.69 0.312-4.36-0.411-5.53-2.06-8.31-5.31-2.65-2.65-5.56-3.6-9-5v-2c-0.887-0.0825-1.77-0.165-2.69-0.25-5.75-1.3-9.4-5.5-13.3-9.75v-2h-6c-0.66-1.32-1.32-2.64-2-4-0.681 0.124-1.36 0.247-2.06 0.375-4.35-0.555-7.05-3.16-9.94-6.38v-2h-6c-0.248-0.619-0.495-1.24-0.75-1.88-1.46-2.48-2.63-3.08-5.25-4.12v-2h-6c-0.248-0.619-0.495-1.24-0.75-1.88-1.46-2.48-2.63-3.08-5.25-4.12v-2h-6c-0.248-0.619-0.495-1.24-0.75-1.88-1.46-2.48-2.63-3.08-5.25-4.12v-2h-6c-0.248-0.619-0.495-1.24-0.75-1.88-1.46-2.48-2.63-3.08-5.25-4.12v-2h-6c-0.268-0.639-0.536-1.28-0.812-1.94-1.07-2.39-1.07-2.39-4.19-3.06-0.33-0.66-0.66-1.32-1-2-1.07-0.247-2.14-0.495-3.25-0.75-4.56-1.52-5.9-3.47-8.75-7.25-1.33-1.01-2.66-2.01-4-3v-2h-6c-0.66-1.32-1.32-2.64-2-4h-2c-0.66-1.32-1.32-2.64-2-4-0.887 0.103-1.77 0.206-2.69 0.312-3.31-0.312-3.31-0.312-6.12-2.62-2.19-2.69-2.19-2.69-3.19-5.69-0.887 0.124-1.77 0.247-2.69 0.375-3.62-0.41-3.94-0.618-6.12-3.25-2.19-3.12-2.19-3.12-3.19-5.12-2.32-0.407-4.66-0.744-7-1v-2c-0.99-0.33-1.98-0.66-3-1-0.667-1.33-1.33-2.67-2-4-0.99-0.33-1.98-0.66-3-1-0.33-0.66-0.66-1.32-1-2-1.07-0.268-2.14-0.536-3.25-0.812-4.19-1.33-5.98-2.83-8.75-6.19v-2h-2c-0.186-0.639-0.371-1.28-0.562-1.94-0.474-0.681-0.949-1.36-1.44-2.06-1.09-0.144-2.19-0.289-3.31-0.438-4.49-0.686-5.88-2.08-8.69-5.56v-2c-0.99-0.33-1.98-0.66-3-1-2.69-2.44-2.69-2.44-5-5v-2c-1.32-0.66-2.64-1.32-4-2v-2c-1.11-0.0825-2.23-0.165-3.38-0.25-1.79-0.371-1.79-0.371-3.62-0.75-1.25-2-1.25-2-2-4-0.99-0.33-1.98-0.66-3-1v-2c-0.598-0.268-1.2-0.536-1.81-0.812-2.25-1.22-3.62-2.17-5.19-4.19-0.364-1.66-0.7-3.33-1-5l-2-2c-0.289-0.66-0.578-1.32-0.875-2-1.39-2.47-2.59-2.85-5.12-4-1.69-1.25-1.69-1.25-3-3-0.0825-0.928-0.165-1.86-0.25-2.81-0.852-3.62-1.42-3.97-4.25-6.12-3.13-2.41-3.44-2.82-4.44-6.94l-0.0625-3.12c-0.99-0.33-1.98-0.66-3-1-0.705-2.32-1.37-4.66-2-7-0.66-0.33-1.32-0.66-2-1-0.356-2.55-0.444-5.08-0.559-7.65-0.218-1.16-0.218-1.16-0.441-2.35-0.99-0.66-1.98-1.32-3-2-0.512-2.6-0.512-2.6-0.688-5.62-0.0657-1-0.131-2.01-0.199-3.04-0.0374-0.771-0.0748-1.54-0.113-2.34-0.99-0.33-1.98-0.66-3-1v-21l4-2c-0.0348-0.904-0.0696-1.81-0.105-2.74-0.0271-1.18-0.0541-2.36-0.082-3.57-0.0348-1.17-0.0696-2.34-0.105-3.55 0.325-3.48 0.741-3.98 3.29-6.14 0.33-1.2 0.66-2.39 1-3.62 0.33-1.11 0.66-2.23 1-3.38 0.99-0.33 1.98-0.66 3-1v-6l4-2v-6c1.98-0.99 1.98-0.99 4-2v-6l5-1c-0.33-0.99-0.66-1.98-1-3 1.62-1.71 3.29-3.37 5-5h2c0.227-0.557 0.454-1.11 0.688-1.69 1.69-2.97 3.78-5.03 6.31-7.31h2c0.66-1.32 1.32-2.64 2-4h6c0.66-1.32 1.32-2.64 2-4h2c0.66-1.32 1.32-2.64 2-4h10c0.99-1.98 0.99-1.98 2-4h6c0.99-1.98 0.99-1.98 2-4h14c0.99-1.98 0.99-1.98 2-4 5.8-0.074 11.6-0.129 17.4-0.165 1.97-0.0151 3.95-0.0356 5.92-0.0615 2.83-0.0363 5.67-0.0534 8.5-0.0667 0.887-0.0155 1.77-0.031 2.69-0.0469 0.821-2.27e-4 1.64-4.53e-4 2.49-6.87e-4 0.724-0.00666 1.45-0.0133 2.19-0.0202 1.8 0.361 1.8 0.361 3.8 3.36 3.35 0.587 3.35 0.587 7.12 0.688 1.28 0.0657 2.56 0.131 3.88 0.199 0.987 0.0374 1.97 0.0748 2.99 0.113 0.33 0.99 0.66 1.98 1 3 1.06 0.0374 2.12 0.0748 3.21 0.113 1.39 0.0657 2.78 0.132 4.16 0.199 0.699 0.0226 1.4 0.0451 2.12 0.0684 2.03 0.107 2.03 0.107 5.51 0.619 0.99 1.49 0.99 1.49 2 3 2.36 0.47 2.36 0.47 5 0.5 2.69 0.0938 2.69 0.0938 5 0.5 0.99 1.49 0.99 1.49 2 3 2.33 0.694 4.66 1.36 7 2 0.33 0.66 0.66 1.32 1 2 2.33 0.392 2.33 0.392 5 0.5 2.75 0.156 2.75 0.156 5 0.5 0.33 0.66 0.66 1.32 1 2 2.76-0.523 5.33-1.11 8-2v-18c1.32-0.66 2.64-1.32 4-2 0.155-1.61 0.155-1.61 0.312-3.25 0.848-4.63 2.25-5.53 5.84-8.26 1.84-1.49 3.16-2.99 4.59-4.86 1.11-1.3 1.11-1.3 2.25-2.62h3c0.155-0.959 0.155-0.959 0.312-1.94 0.34-1.02 0.34-1.02 0.688-2.06 0.99-0.33 1.98-0.66 3-1 0.289-0.598 0.578-1.2 0.875-1.81 1.53-2.98 3.33-4.37 6.12-6.19 2.81-0.25 2.81-0.25 5 0 0.66-1.32 1.32-2.64 2-4h10c0.66-1.32 1.32-2.64 2-4 3.15-0.504 3.15-0.504 6.94-0.562 3.7-0.00541 3.7-0.00541 7.06-0.438 0.594-0.742 0.594-0.742 1.2-1.5 2.91-2.42 6.28-1.93 9.9-1.9 0.79-0.00287 1.58-0.00574 2.39-0.0087 1.67-0.00204 3.34 0.00349 5.01 0.016 2.56 0.0161 5.12 1.39e-4 7.68-0.019 1.62 0.00198 3.24 0.00582 4.86 0.0117 1.15-0.00911 1.15-0.00911 2.33-0.0184 2.15 0.0287 2.15 0.0287 5.64 0.417 0.66 0.99 1.32 1.98 2 3 2.29 0.459 2.29 0.459 4.94 0.406 0.977 0.0219 1.95 0.0438 2.96 0.0664 1.54 0.0135 1.54 0.0135 3.1 0.0273 2.02 0.0178 4.04 0.0484 6.06 0.0938 0.898 0.00709 1.8 0.0142 2.72 0.0215 0.731 0.127 1.46 0.254 2.21 0.385 0.66 0.99 1.32 1.98 2 3 3.25 0.474 3.25 0.474 6.94 0.5 6.69 0.166 6.69 0.166 8.72 2 0.443 0.495 0.887 0.99 1.34 1.5 2.34 0.433 4.57 0.5 6.94 0.594 0.679 0.134 1.36 0.268 2.06 0.406 0.66 0.99 1.32 1.98 2 3 2.33 0.694 4.66 1.36 7 2 0.33 0.66 0.66 1.32 1 2 2.59 0.468 2.59 0.468 5.56 0.625 1.01 0.0748 2.02 0.15 3.07 0.227 0.782 0.049 1.56 0.098 2.37 0.148 0.66-1.32 1.32-2.64 2-4h2v-6c0.619-0.247 1.24-0.495 1.88-0.75 2.48-1.46 3.08-2.63 4.12-5.25h2v-6c0.619-0.247 1.24-0.495 1.88-0.75 2.48-1.46 3.08-2.63 4.12-5.25h3c0.0206-0.763 0.0412-1.53 0.0625-2.31 0.938-2.69 0.938-2.69 4.31-4.5 3.62-1.19 3.62-1.19 6.62-1.19 0.66-1.32 1.32-2.64 2-4h2c0.66-1.32 1.32-2.64 2-4h10l2-4c3.15-0.504 3.15-0.504 6.94-0.562 3.7-0.00541 3.7-0.00541 7.06-0.438 0.466-0.495 0.931-0.989 1.41-1.5 2.14-2.02 3.4-1.88 6.3-1.89zm-47.7 19.4-1 2h2l-1-2zm50 41c-0.66 1.32-1.32 2.64-2 4h-6c-0.248 0.619-0.495 1.24-0.75 1.88-1.46 2.48-2.63 3.08-5.25 4.12v2c-1.98 0.99-1.98 0.99-4 2-0.0269 2.12-0.0464 4.25-0.0625 6.38-0.0116 1.18-0.0232 2.37-0.0352 3.59-0.117 2.96-0.117 2.96 1.1 5.04h3c0.33 0.99 0.66 1.98 1 3 1.98 1.69 3.98 3.35 6 5 0.66 0.99 1.32 1.98 2 3 0.908 0.0825 1.81 0.165 2.75 0.25 4.15 0.958 5.2 2.65 7.73 5.91 1.47 1.79 2.96 3.15 4.77 4.59 2.75 2.25 2.75 2.25 4.75 5.25 1.15 0.33 2.31 0.66 3.5 1 3.5 1 3.5 1 5.5 4 1.19 1.77 1.19 1.77 3 3 3.13 0.25 3.13 0.25 6 0 0.33 0.99 0.66 1.98 1 3 2.12 2.79 2.12 2.79 5 5 3.21 0.419 3.21 0.419 6 0v2h2v3h3c0.33 0.99 0.66 1.98 1 3 0.866 0.0206 1.73 0.0412 2.62 0.0625 3.68 1.02 4.15 1.56 6.38 4.44 2.28 3.08 2.28 3.08 6 4 4.11 0.686 5.04 2.76 7.5 5.94 1.49 1.87 1.49 1.87 4.5 2.06 4.59 0.765 6.28 3.94 9 7.5 2.55 3.05 3.58 3.89 7.5 4.94 4.16 1.26 4.86 2.76 7.5 6.06 1.7 0.464 1.7 0.464 3.44 0.938 3.56 1.06 3.56 1.06 6 4 2.89 3.46 4.6 3.99 8.72 5.28 2.76 1.17 4 3.47 5.84 5.78 2.31 0.731 4.65 1.4 7 2 0.426 0.505 0.852 1.01 1.29 1.53 2.66 2.29 5.05 1.86 8.49 1.87 0.657 0.00287 1.31 0.00574 1.99 0.0087 1.39 0.00204 2.77-0.00348 4.16-0.016 2.12-0.0161 4.25-1.33e-4 6.37 0.019 1.35-0.00198 2.69-0.00582 4.04-0.0117 1.23-0.00338 2.45-0.00677 3.72-0.0103 0.968-0.128 1.94-0.256 2.93-0.388 0.66-0.99 1.32-1.98 2-3 1.97-0.379 1.97-0.379 4.42-0.385 0.914-0.0101 1.83-0.0202 2.77-0.0306 1.48 0.00453 1.48 0.00453 3 0.00916 1.01-0.0108 2.03-0.0217 3.07-0.0328 4.35-0.046 8.7-0.0574 13-0.0721 3.17-0.0156 6.34-0.0486 9.51-0.0825 1.48 0.00453 1.48 0.00453 3 0.00916 0.914-0.0101 1.83-0.0202 2.77-0.0306 0.807-0.00205 1.61-0.00411 2.44-0.00623 0.651-0.125 1.3-0.25 1.97-0.379 0.66-0.99 1.32-1.98 2-3 2.83-0.338 5.45-0.489 8.29-0.512 0.818-0.018 1.64-0.0359 2.48-0.0544 2.62-0.0543 5.24-0.088 7.86-0.121 1.77-0.0332 3.55-0.0676 5.32-0.104 4.35-0.0851 8.7-0.152 13.1-0.209-0.33-1.65-0.66-3.3-1-5h-2c-0.309-0.835-0.309-0.835-0.625-1.69-1.34-2.26-2.43-3.31-4.44-4.94-2.94-2.38-2.94-2.38-3.94-4.38h-6c-0.33-0.99-0.66-1.98-1-3-2.72-3.28-4.34-4.82-8.5-5.94-4.43-1.34-5.59-3.56-8.5-7.06-1.15-0.33-2.31-0.66-3.5-1-3.65-1.04-4-1.28-6.06-4.12-2.17-3.23-2.17-3.23-5.75-3.25-0.887 0.124-1.77 0.247-2.69 0.375-0.33-0.99-0.66-1.98-1-3-2.72-3.28-4.34-4.82-8.5-5.94-4.43-1.34-5.59-3.56-8.5-7.06-1.15-0.33-2.31-0.66-3.5-1-4.47-1.28-5.58-3.49-8.5-7-1.15-0.33-2.31-0.66-3.5-1-4.47-1.28-5.58-3.49-8.5-7-3.64-1.28-3.64-1.28-7-2-0.33-0.66-0.66-1.32-1-2h-6c-0.33-0.99-0.66-1.98-1-3-3.52-4.22-5.65-5.29-11-6-0.66-0.99-1.32-1.98-2-3-2.33-0.694-4.66-1.36-7-2-0.33-0.66-0.66-1.32-1-2-0.887-0.0619-1.77-0.124-2.69-0.188-3.69-0.906-4.1-1.44-6.31-4.31-2.39-3.13-2.39-3.13-6.25-4.25-0.908-0.0825-1.82-0.165-2.75-0.25-0.99-1.49-0.99-1.49-2-3-2.33-0.694-4.66-1.36-7-2-0.495-0.99-0.495-0.99-1-2-2.55-0.356-5.08-0.444-7.65-0.559-0.775-0.146-1.55-0.291-2.35-0.441-0.99-1.49-0.99-1.49-2-3-0.99-0.165-1.98-0.33-3-0.5-0.99-0.165-1.98-0.33-3-0.5-0.99-1.49-0.99-1.49-2-3-2.36-0.47-2.36-0.47-5-0.5-2.69-0.0938-2.69-0.0938-5-0.5-0.99-1.49-0.99-1.49-2-3-3.02-0.473-3.02-0.473-6.44-0.5-6.24-0.167-6.24-0.167-8.03-2-3.06-3-8.31-1.99-12.4-2.09-1.04-0.134-2.08-0.268-3.15-0.406-0.66-0.99-1.32-1.98-2-3-3.01-0.418-3.01-0.418-6.54-0.293-1.3 0.00967-2.6 0.0193-3.95 0.0293-1.38 0.0251-2.76 0.0505-4.14 0.0762-1.39 0.015-2.78 0.0287-4.16 0.041-3.4 0.0355-6.81 0.0849-10.2 0.146zm490 15 1 2zm-8 8 1 2zm-8 8 1 2zm-654 1c-0.66 1.32-1.32 2.64-2 4-0.949-0.0412-1.9-0.0825-2.88-0.125-3.23-0.225-3.23-0.225-5.12 2.12-0.167 3.08-0.167 3.08 0 6-0.639 0.206-1.28 0.413-1.94 0.625-1.02 0.681-1.02 0.681-2.06 1.38-0.155 1.36-0.155 1.36-0.312 2.75-0.786 3.71-1.37 4.09-4.25 6.31-2.85 2.21-2.85 2.21-4.25 5.5 1.03 3.08 2.82 4.17 5.36 6.05 2.37 2.26 2.62 5.29 3.45 8.38 2.53 3.23 3.81 4.85 7.94 5.38 4.11 0.84 5.08 2.85 7.56 6.06 1.49 1.87 1.49 1.87 4.5 2.06 4.1 0.683 5.04 2.7 7.5 5.86 2.14 2.33 4.52 2.75 7.5 3.64 2.71 2.45 5.05 5.05 7.44 7.81 2.43 2.49 2.43 2.49 5.88 2.5 0.887-0.103 1.77-0.206 2.69-0.312 0.66 1.32 1.32 2.64 2 4h6c0.33 0.99 0.66 1.98 1 3 2.38 2.71 2.38 2.71 5 5h2c0.309 0.959 0.309 0.959 0.625 1.94 0.454 0.681 0.908 1.36 1.38 2.06 1.99 0.381 3.99 0.713 6 1 1.02 0.979 2.02 1.98 3 3 0.949 0.268 1.9 0.536 2.88 0.812 4.15 1.58 5.42 3.73 8.12 7.19h2c0.309 0.959 0.309 0.959 0.625 1.94 0.454 0.681 0.908 1.36 1.38 2.06 1.99 0.381 3.99 0.713 6 1 1.02 0.979 2.02 1.98 3 3 0.949 0.268 1.9 0.536 2.88 0.812 4.15 1.58 5.42 3.73 8.12 7.19h2c0.309 0.959 0.309 0.959 0.625 1.94 0.454 0.681 0.908 1.36 1.38 2.06 1.99 0.381 3.99 0.713 6 1l3 3c2.63 0.251 2.63 0.251 5 0v2c3.44 3.82 3.44 3.82 8 6 0.402 0.99 0.402 0.99 0.812 2 0.392 0.66 0.784 1.32 1.19 2 1.99 0.374 3.99 0.707 6 1 0.66 0.99 1.32 1.98 2 3 3.08 0.25 3.08 0.25 6 0 0.33 0.99 0.66 1.98 1 3 2.72 3.28 4.34 4.82 8.5 5.94 4.42 1.34 5.61 3.57 8.5 7.06 1.99 0.39 3.99 0.732 6 1 1.38 2.06 1.38 2.06 2 4h3c0.33 0.99 0.66 1.98 1 3 0.866 0.0206 1.73 0.0412 2.62 0.0625 3.71 1.03 4.15 1.59 6.38 4.5 2.38 3.16 2.38 3.16 6.38 3.88 0.866-0.144 1.73-0.289 2.62-0.438 0.66 1.32 1.32 2.64 2 4h6c0.66 1.32 1.32 2.64 2 4h2c0.66 1.32 1.32 2.64 2 4h3c0.0374-0.699 0.0748-1.4 0.113-2.12 0.0986-1.37 0.0986-1.37 0.199-2.76 0.058-0.905 0.116-1.81 0.176-2.74 0.512-2.38 0.512-2.38 3.51-4.38 0.268-1.09 0.536-2.19 0.812-3.31 1.52-4.73 3.28-5.77 7.19-8.69l1-2c0.99-0.33 1.98-0.66 3-1 0.0206-1.03 0.0412-2.06 0.0625-3.12 1.25-5.19 3.8-6.79 7.94-9.88 3.93-3.29 4.7-6.09 6-11 0.66-0.33 1.32-0.66 2-1v-11c-0.99-0.33-1.98-0.66-3-1-0.33-0.99-0.66-1.98-1-3-0.99-0.33-1.98-0.66-3-1-0.33-0.99-0.66-1.98-1-3-1.84-0.945-1.84-0.945-4-1.56-2.19-0.691-2.19-0.691-4-1.44l-1-2c-1.07-0.247-2.14-0.495-3.25-0.75-4.56-1.52-5.73-3.62-8.75-7.25-1.15-0.33-2.31-0.66-3.5-1-4.47-1.28-5.58-3.49-8.5-7-1.15-0.33-2.31-0.66-3.5-1-4.63-1.32-5.64-3.24-8.5-7h-2c-0.33-0.99-0.66-1.98-1-3-1.84-0.945-1.84-0.945-4-1.56-2.19-0.691-2.19-0.691-4-1.44-0.33-0.66-0.66-1.32-1-2h-6c-0.33-0.99-0.66-1.98-1-3-1.83-1.82-1.83-1.82-4-3.56-3.9-3.24-3.9-3.24-5-5.44-0.887-0.0619-1.77-0.124-2.69-0.188-3.69-0.906-4.1-1.44-6.31-4.31-2.28-3.08-2.28-3.08-6-4-3.55-0.592-3.82-1.2-5.94-3.94-2.28-2.95-2.79-3.48-6.56-4.56-4.31-1.23-5.63-3.04-8.24-6.54-0.416-0.482-0.833-0.964-1.26-1.46h-2c-0.33-0.99-0.66-1.98-1-3-1.07-0.268-2.14-0.536-3.25-0.812-3.9-1.24-4.88-2.23-7.25-5.41-5.22-6.2-13.5-12.6-21.6-14.2-1.9-0.59-1.9-0.59-3.9-3.59-0.99-0.165-1.98-0.33-3-0.5-0.99-0.165-1.98-0.33-3-0.5-0.99-1.49-0.99-1.49-2-3-2.36-0.47-2.36-0.47-5-0.5-2.69-0.0938-2.69-0.0938-5-0.5-0.99-1.49-0.99-1.49-2-3-2.1-0.469-2.1-0.469-4.44-0.5-2.37-0.0938-2.37-0.0938-4.56-0.5-0.443-0.495-0.887-0.99-1.34-1.5-3.24-2.94-8.32-1.99-12.5-2.09-1.04-0.134-2.08-0.268-3.15-0.406-0.66-0.99-1.32-1.98-2-3-2.55-0.267-4.86-0.348-7.41-0.293-0.73 0.00424-1.46 0.00849-2.21 0.0129-2.33 0.0168-4.67 0.0545-7 0.0926-1.58 0.015-3.16 0.0287-4.74 0.041-3.88 0.0331-7.76 0.0849-11.6 0.146zm646 7 1 2zm-723 1 4 1zm-165 7 1 2zm880 0 1 2zm-8 8 1 2zm-8 8 1 2zm-188 62 1 4zm-220 74 1 2zm793 189 4 1z" fill="#FBFCFE"/>
<path transform="translate(4)" d="m0 0h87c0.495 2.97 0.495 2.97 1 6l3 2v2l4 2v2c1.58 0.0928 1.58 0.0928 3.19 0.188 6.32 1.35 8.95 5.98 12.8 10.8 2.96 3.52 4.26 4.84 8.81 5.81 1.58 0.0928 1.58 0.0928 3.19 0.188v-14c1.32-0.66 2.64-1.32 4-2v-15h64v11c-0.99 0.33-1.98 0.66-3 1-0.33 5.28-0.66 10.6-1 16h-3l-0.113 3.21c-0.0657 1.39-0.132 2.78-0.199 4.16-0.0338 1.05-0.0338 1.05-0.0684 2.12-0.107 2.03-0.107 2.03-0.619 5.51l-3 2c-0.47 2.36-0.47 2.36-0.5 5-0.0938 2.69-0.0938 2.69-0.5 5l-3 2c-0.473 3.28-0.473 3.28-0.5 7-0.0938 3.81-0.0938 3.81-0.5 7l-3 2c-0.778 3.07-0.665 5.91 0 9 2.06 2.11 3.63 3.41 6 5 2.87 2.69 2.87 2.69 5 5v2l4 2v6l1.94 0.875c2.06 1.12 2.06 1.12 3.06 3.12l2.88 0.188 3.12 0.812c1.44 3.06 1.44 3.06 2.11 4.95 1.75 4 4.61 7.22 7.89 10 2.33 0.687 4.66 1.36 7 2 1.38 2.94 1.38 2.94 2 6 0.647 3.1 0.647 3.1 2.94 4 0.681 0.33 1.36 0.66 2.06 1l2 3c1.16 0.268 2.31 0.536 3.5 0.812l3.5 1.19c1.38 2.94 1.38 2.94 2 6 0.647 3.1 0.647 3.1 2.94 4 0.681 0.33 1.36 0.66 2.06 1l2 3c1.16 0.268 2.31 0.536 3.5 0.812l3.5 1.19c1.38 2.94 1.38 2.94 2 6 0.647 3.1 0.647 3.1 2.94 4 0.681 0.33 1.36 0.66 2.06 1 0.66 0.99 1.32 1.98 2 3 3.07 0.733 3.07 0.733 6 1l0.25 3.38 0.75 3.62c1.78 1.14 1.78 1.14 4 2 1.23 1.46 2.46 2.92 3.65 4.42 2.16 2.52 4.78 4.49 7.35 6.58 1.68 1.66 3.34 3.32 5 5 1.04 1.02 2.07 2.03 3.11 3.04 1.07 1.05 2.13 2.1 3.2 3.14l1.67 1.62c1.38 1.36 2.7 2.78 4.02 4.2v2c0.99 0.33 1.98 0.66 3 1 2.69 2.44 2.69 2.44 5 5v2c0.99 0.33 1.98 0.66 3 1 2.69 2.44 2.69 2.44 5 5v2c0.99 0.33 1.98 0.66 3 1 2.69 2.44 2.69 2.44 5 5v2l1.69 0.625c2.57 1.53 4.04 3.38 5.88 5.72 2.11 2.43 4.57 4.36 7.08 6.36l1.36 1.3v2l1.69 0.625c2.26 1.34 3.31 2.43 4.94 4.44 2.05 2.95 2.05 2.95 4.38 3.94v2c0.598 0.268 1.2 0.536 1.81 0.812 2.19 1.19 2.19 1.19 3.62 2.75 1.51 1.69 1.51 1.69 4 1.62 2.56 0.812 2.56 0.812 3.6 2.44 0.659 1.41 1.31 2.82 1.95 4.24 1.79 3.75 3.93 7.23 7.89 8.95 2.13 0.649 2.13 0.649 5.12 1.19l0.25 3.38 0.75 3.62c1.78 1.14 1.78 1.14 4 2 1.23 1.46 2.46 2.92 3.65 4.42 2.16 2.52 4.78 4.49 7.35 6.58 1.69 1.64 3.35 3.31 5 5 0.837 0.822 0.837 0.822 1.69 1.66 2.74 2.69 5.32 5.35 7.75 8.34 2.75 3.22 5.72 5.8 8.99 8.48l1.57 1.52v2c0.99 0.33 1.98 0.66 3 1 1.36 1.42 1.36 1.42 2.75 3.19 2.62 3.18 5.42 5.79 8.59 8.41 2.36 2 4.5 4.19 6.66 6.4 1.21 1.18 1.21 1.18 2.44 2.38 1.91 1.96 3.64 3.9 5.38 6 2.9 3.46 6.16 6.29 9.65 9.14l1.54 1.48v2c0.99 0.33 1.98 0.66 3 1 2.69 2.44 2.69 2.44 5 5v2c0.99 0.33 1.98 0.66 3 1 2.69 2.44 2.69 2.44 5 5v2c0.99 0.33 1.98 0.66 3 1 1.39 1.45 1.39 1.45 2.81 3.25 2.8 3.4 5.76 5.98 9.19 8.75 2.5 2.38 4.77 4.7 6.88 7.44 2.25 2.72 4.69 4.77 7.39 7.02 1.66 1.48 3.03 3 4.42 4.73 2 2.43 3.82 3.97 6.31 5.81v2c0.835 0.309 0.835 0.309 1.69 0.625 2.26 1.34 3.31 2.43 4.94 4.44 2.05 2.95 2.05 2.95 4.38 3.94v2c0.928 0.402 0.928 0.402 1.88 0.812 2.12 1.19 2.12 1.19 4.12 4.19l2.94 0.25c1.52 0.371 1.52 0.371 3.06 0.75 1.56 3.25 1.56 3.25 2.23 5.17 1.23 2.93 3.47 4.69 5.77 6.83 0.763 0.949 1.53 1.9 2.31 2.88 2.62 3.22 5.67 5.82 8.82 8.52 2.07 1.78 4.06 3.56 5.87 5.61v2c0.99 0.33 1.98 0.66 3 1 1.17 1.4 2.33 2.81 3.46 4.24 2.39 2.73 5.17 4.95 7.96 7.24l1.57 1.52v2c0.99 0.33 1.98 0.66 3 1 2.69 2.44 2.69 2.44 5 5v2c0.99 0.33 1.98 0.66 3 1 2.69 2.44 2.69 2.44 5 5v2c0.866 0.371 0.866 0.371 1.75 0.75 2.58 1.43 4.31 3.03 6.25 5.25v2c0.99 0.33 1.98 0.66 3 1 2.69 2.44 2.69 2.44 5 5v2c0.99 0.33 1.98 0.66 3 1 2.69 2.44 2.69 2.44 5 5v2l1.75 0.75c2.58 1.43 4.31 3.03 6.25 5.25v2c0.99 0.33 1.98 0.66 3 1 2.69 2.44 2.69 2.44 5 5v2l1.75 0.75c2.58 1.43 4.31 3.03 6.25 5.25v2l1.69 0.625c2.26 1.34 3.31 2.43 4.94 4.44 2.05 2.95 2.05 2.95 4.38 3.94v2l1.94 0.812c2.06 1.19 2.06 1.19 3.06 4.19 2.31 0.33 4.62 0.66 7 1l0.25 3.38 0.75 3.62c1.8 1.27 1.8 1.27 4 2 2.25 2 2.25 2 4 4v2l3.31 0.0625c1.22 0.309 2.43 0.619 3.69 0.938 1.88 3.38 1.88 3.38 3 7l1 3 4 2 1 3c2.31 0.33 4.62 0.66 7 1l1 7c0.99 0.33 1.98 0.66 3 1 1.39 1.59 1.39 1.59 2.81 3.5 2.89 3.53 4.65 3.92 9.19 4.5 2.88 2.19 2.88 2.19 5 5 0.312 3.31 0.312 3.31 0 6l1.94 0.875c2.06 1.12 2.06 1.12 3.06 3.12 2.31 0.731 4.65 1.4 7 2v2c2.12 1.12 2.12 1.12 5 2l1 3 2 1c0.625 3.06 0.625 3.06 1 6 1.98 0.33 3.96 0.66 6 1l0.25 3.38c0.329 3.68 0.329 3.68 2.81 5.06l1.94 0.562v2l1.94 0.875c2.06 1.12 2.06 1.12 3.06 3.12 2.31 0.731 4.65 1.4 7 2v2l1.69 0.625c3.17 1.89 5 4.53 7.31 7.38l3 2v2l3.44 0.375 3.56 0.625 1 2c3.29-0.379 3.29-0.379 6-2 1.69-0.0721 3.38-0.0839 5.06-0.0625l2.79 0.0273c1.07 0.0174 1.07 0.0174 2.15 0.0352l2-4h14l2-4h10l2-4h10l2-4h10l2-4c4.66-0.0741 9.33-0.129 14-0.165 1.59-0.0151 3.17-0.0356 4.76-0.0615 2.28-0.0363 4.56-0.0534 6.84-0.0667 0.712-0.0155 1.42-0.031 2.16-0.0469 2-6.87e-4 2-6.87e-4 5.26 0.34l2 3c2.98 0.474 2.98 0.474 6.38 0.5 4.7 0.127 7.05 0.43 10.6 3.5l2.56 0.5c2.44 0.5 2.44 0.5 3.81 2 2.09 1.93 3.33 1.89 6.13 2 4.14 0.166 4.14 0.166 6.09 1.96 0.467 0.507 0.933 1.01 1.41 1.54 2 0.679 4 1.35 6 2l1 2c2.31 0.731 4.65 1.4 7 2v2l16 1 2-4c2.94-1.19 2.94-1.19 6-2 3.11-0.669 3.11-0.669 4.19-3.06 0.268-0.639 0.536-1.28 0.812-1.94h2c0.248-0.578 0.495-1.16 0.75-1.75 1.43-2.58 3.03-4.31 5.25-6.25h2c0.248-0.578 0.495-1.16 0.75-1.75 1.43-2.58 3.03-4.31 5.25-6.25h2c0.248-0.578 0.495-1.16 0.75-1.75 1.43-2.58 3.03-4.31 5.25-6.25h2c0.248-0.578 0.495-1.16 0.75-1.75 1.43-2.58 3.03-4.31 5.25-6.25h2c0.248-0.578 0.495-1.16 0.75-1.75 1.43-2.58 3.03-4.31 5.25-6.25h2c0.248-0.578 0.495-1.16 0.75-1.75 1.43-2.58 3.03-4.31 5.25-6.25h2c0.248-0.578 0.495-1.16 0.75-1.75 1.43-2.58 3.03-4.31 5.25-6.25h2c0.248-0.578 0.495-1.16 0.75-1.75 1.43-2.58 3.03-4.31 5.25-6.25h2c0.248-0.578 0.495-1.16 0.75-1.75 1.43-2.58 3.03-4.31 5.25-6.25h2c0.248-0.578 0.495-1.16 0.75-1.75 1.43-2.58 3.03-4.31 5.25-6.25h2c0.248-0.578 0.495-1.16 0.75-1.75 1.43-2.58 3.03-4.31 5.25-6.25h2c0.248-0.578 0.495-1.16 0.75-1.75 1.43-2.58 3.03-4.31 5.25-6.25h2c0.248-0.578 0.495-1.16 0.75-1.75 1.43-2.58 3.03-4.31 5.25-6.25h2c0.248-0.578 0.495-1.16 0.75-1.75 1.43-2.58 3.03-4.31 5.25-6.25h2c0.248-0.578 0.495-1.16 0.75-1.75 1.43-2.58 3.03-4.31 5.25-6.25h2c0.248-0.578 0.495-1.16 0.75-1.75 1.43-2.58 3.03-4.31 5.25-6.25h2c0.248-0.578 0.495-1.16 0.75-1.75 1.43-2.58 3.03-4.31 5.25-6.25h2c0.248-0.578 0.495-1.16 0.75-1.75 1.43-2.58 3.03-4.31 5.25-6.25h2c0.248-0.578 0.495-1.16 0.75-1.75 1.43-2.58 3.03-4.31 5.25-6.25h2c0.248-0.578 0.495-1.16 0.75-1.75 1.43-2.58 3.03-4.31 5.25-6.25h2l2-4h2l2-4h2c0.248-0.578 0.495-1.16 0.75-1.75 1.43-2.58 3.03-4.31 5.25-6.25h2l2-4h3v-7l1.88-0.75c2.48-1.46 3.08-2.63 4.12-5.25h2l-0.125-2.88c0.125-3.12 0.125-3.12 2.12-5.12 0.458-1.97 0.458-1.97 0.625-4.12 0.124-1.28 0.248-2.56 0.375-3.88-0.99-0.33-1.98-0.66-3-1-0.0374-0.699-0.0748-1.4-0.113-2.12l-0.199-2.76-0.176-2.74c-0.3-2.75-0.3-2.75-3.51-4.38-0.453-2.58-0.503-5.07-0.594-7.69l-0.406-2.31-3-2c-0.453-2.58-0.503-5.07-0.594-7.69l-0.406-2.31-3-2c-0.406-2.06-0.406-2.06-0.5-4.44-0.151-3.81-0.753-4.98-3.5-7.56-0.683-2.33-1.35-4.66-2-7l-2-1c-0.356-2.55-0.444-5.08-0.559-7.65-0.146-0.775-0.291-1.55-0.441-2.35l-3-2c-0.333-2-0.667-4-1-6l-3-2c-0.512-2.6-0.512-2.6-0.688-5.62l-0.199-3.04c-0.0374-0.771-0.0748-1.54-0.113-2.34-0.99-0.33-1.98-0.66-3-1l-1-11c-0.99-0.33-1.98-0.66-3-1v-33l4-2v-14l4-2v-10l4-2v-10l4-2v-10l4-2v-14l4-2v-18l4-2-1-28c-0.99-0.33-1.98-0.66-3-1l-1-7c-0.99-0.33-1.98-0.66-3-1v-6c-0.99-0.33-1.98-0.66-3-1-0.309-0.639-0.619-1.28-0.938-1.94-1.32-2.57-2.48-2.89-5.06-4.06-2.67-1.95-3-3-3.75-6.31-1.45-4.28-2.99-5.53-6.44-8.21-1.78-1.46-3.13-2.94-4.56-4.73-2.14-2.89-2.14-2.89-5.25-4.75v-2l-1.69-0.625c-2.58-1.53-4.05-3.4-5.89-5.73-1.52-1.75-3.13-3.17-4.92-4.64-2.35-1.94-4.34-3.88-6.25-6.25-2.14-2.89-2.14-2.89-5.25-4.75v-2l-1.69-0.625c-2.58-1.53-4.05-3.4-5.89-5.73-1.52-1.75-3.13-3.17-4.92-4.64-2.35-1.94-4.34-3.88-6.25-6.25-2.14-2.89-2.14-2.89-5.25-4.75v-2c-0.835-0.309-0.835-0.309-1.69-0.625-2.57-1.53-4.04-3.38-5.88-5.72-2.11-2.43-4.57-4.36-7.08-6.36l-1.36-1.3v-2c-0.835-0.309-0.835-0.309-1.69-0.625-2.58-1.53-4.05-3.39-5.89-5.73-2.04-2.36-4.38-4.27-6.77-6.27-2.01-1.69-3.9-3.42-5.65-5.38v-2c-0.835-0.309-0.835-0.309-1.69-0.625-2.58-1.53-4.05-3.39-5.89-5.73-2.04-2.36-4.38-4.27-6.77-6.27-2.01-1.69-3.9-3.42-5.65-5.38v-2l-1.69-0.625c-2.58-1.53-4.05-3.4-5.89-5.73-1.52-1.75-3.13-3.17-4.92-4.64-3.26-2.7-5.79-5.74-8.5-9-1.15-1.02-2.32-2.02-3.5-3-3.26-2.7-5.79-5.74-8.5-9-1.84-1.62-3.72-3.18-5.64-4.7l-1.36-1.3v-2l-4-2v-2h-2c-1.37-1.43-1.37-1.43-2.88-3.31-2.19-2.66-4.34-4.65-7.12-6.69v-2c-0.99-0.33-1.98-0.66-3-1-2.19-1.94-2.19-1.94-4-4v-2h84v2c1.32 0.66 2.64 1.32 4 2v2c0.99 0.33 1.98 0.66 3 1 1.71 1.62 3.37 3.29 5 5l2.31 2.19c1.69 1.81 1.69 1.81 1.69 3.81 0.99 0.33 1.98 0.66 3 1 2.69 2.44 2.69 2.44 5 5v2c0.99 0.33 1.98 0.66 3 1 1.36 1.42 1.36 1.42 2.75 3.19 2.64 3.21 5.47 5.78 8.66 8.41 2.16 1.9 3.79 4.16 5.59 6.4 1.71 1.55 3.48 3.03 5.25 4.52 2.41 2.05 4.61 4.15 6.75 6.48v2c0.99 0.33 1.98 0.66 3 1 2.69 2.44 2.69 2.44 5 5v2c0.99 0.33 1.98 0.66 3 1 1.36 1.42 1.36 1.42 2.75 3.19 2.64 3.21 5.47 5.78 8.66 8.41 2.16 1.9 3.79 4.16 5.59 6.4 1.11 0.977 2.24 1.93 3.38 2.88 3.08 2.55 5.55 5.32 8.09 8.4 2.11 2.37 4.51 4.31 6.95 6.33 2.16 1.9 3.79 4.16 5.59 6.4 1.11 0.977 2.24 1.93 3.38 2.88 3.08 2.55 5.55 5.32 8.09 8.4 2.11 2.37 4.5 4.31 6.95 6.32 2.17 1.91 3.83 4.12 5.59 6.4 2.71 2.86 5.54 5.47 8.56 8 2.89 2.43 5.08 5.05 7.44 8 1.11 0.977 2.24 1.93 3.38 2.88 3.08 2.55 5.55 5.32 8.09 8.4 2.11 2.37 4.51 4.31 6.95 6.33 2.16 1.9 3.79 4.16 5.59 6.4 1.11 0.977 2.24 1.93 3.38 2.88 3.08 2.55 5.55 5.32 8.09 8.4 2.11 2.37 4.51 4.31 6.95 6.33 2.16 1.9 3.79 4.16 5.59 6.4 1.11 0.977 2.24 1.93 3.38 2.88 3.07 2.55 5.54 5.31 8.07 8.39 2.19 2.44 4.67 4.45 7.23 6.48l1.32 1.26v2c0.99 0.33 1.98 0.66 3 1 1.36 1.42 1.36 1.42 2.75 3.19 2.64 3.21 5.47 5.78 8.66 8.41 2.16 1.9 3.79 4.16 5.59 6.4 1.11 0.977 2.24 1.93 3.38 2.88 3.08 2.55 5.55 5.32 8.09 8.4 2.11 2.37 4.51 4.31 6.95 6.33 2.16 1.9 3.79 4.16 5.59 6.4 1.11 0.977 2.24 1.93 3.38 2.88 3.08 2.55 5.55 5.32 8.09 8.4 2.11 2.37 4.51 4.31 6.95 6.33 2.16 1.9 3.79 4.16 5.59 6.4 1.11 0.977 2.24 1.93 3.38 2.88 3.08 2.55 5.55 5.32 8.09 8.4 2.11 2.37 4.51 4.31 6.95 6.33 2.16 1.9 3.79 4.16 5.59 6.4 1.71 1.55 3.48 3.03 5.25 4.52 2.41 2.05 4.61 4.15 6.75 6.48v2c0.99 0.33 1.98 0.66 3 1 1.5 1.56 1.5 1.56 3 3.44 1.96 2.45 3.32 3.78 6 5.56v2l1.75 0.75c2.72 1.51 4.3 2.81 6.25 5.25 1.01 5.49 1.74 12.5-1.54 17.2-1.75 1.45-3.52 2.59-5.46 3.75l-1 2c-2.31 0.731-4.65 1.4-7 2-0.0619 1.33-0.0619 1.33-0.125 2.69-1.21 4.57-3.04 5.65-6.88 8.31h-2l-1 4h-2l-1 3c-1.45 1.39-1.45 1.39-3.25 2.81-2.41 1.98-4.23 3.76-6.25 6.19-2.45 2.94-4.98 5.22-7.95 7.61-1.8 1.51-1.8 1.51-3.55 4.39h-2l-1 3c-2.44 2.69-2.44 2.69-5 5h-2l-1 3c-2.44 2.69-2.44 2.69-5 5h-2l-1 3c-2.44 2.69-2.44 2.69-5 5h-2l-1 3c-2.44 2.69-2.44 2.69-5 5h-2l-1 3c-2.44 2.69-2.44 2.69-5 5h-2l-1 3c-1.42 1.36-1.42 1.36-3.19 2.75-3.29 2.69-5.92 5.6-8.55 8.93-0.416 0.436-0.833 0.871-1.26 1.32h-2l-1 3c-2.44 2.69-2.44 2.69-5 5h-2l-1 3c-1.45 1.39-1.45 1.39-3.25 2.81-2.41 1.98-4.23 3.76-6.25 6.19-2.42 2.9-4.92 5.1-7.81 7.5-1.93 1.64-1.93 1.64-4.19 4.5-2.4 2.88-4.85 5.05-7.73 7.41-2.46 2.2-4.47 4.69-6.51 7.27-0.416 0.436-0.833 0.871-1.26 1.32h-2l-1 3c-1.42 1.36-1.42 1.36-3.19 2.75-3.29 2.69-5.92 5.6-8.55 8.93-0.416 0.436-0.833 0.871-1.26 1.32h-2l-1 3c-2.44 2.69-2.44 2.69-5 5h-2l-1 3c-2.44 2.69-2.44 2.69-5 5h-2l-1 3c-2.44 2.69-2.44 2.69-5 5h-2l-1 3c-1.45 1.39-1.45 1.39-3.25 2.81-2.41 1.98-4.23 3.76-6.25 6.19-2.42 2.9-4.92 5.1-7.81 7.5-1.93 1.64-1.93 1.64-4.19 4.5-2.42 2.9-4.92 5.1-7.81 7.5-1.93 1.64-1.93 1.64-4.19 4.5-2.42 2.9-4.92 5.1-7.81 7.5-1.93 1.64-1.93 1.64-4.19 4.5-2.42 2.9-4.92 5.1-7.81 7.5-1.93 1.64-1.93 1.64-4.19 4.5-2.42 2.9-4.92 5.1-7.81 7.5-1.93 1.64-1.93 1.64-4.19 4.5-2.42 2.9-4.92 5.1-7.81 7.5-1.93 1.64-1.93 1.64-4.19 4.5-2.42 2.9-4.92 5.1-7.81 7.5-1.93 1.64-1.93 1.64-4.19 4.5-2.42 2.9-4.92 5.1-7.81 7.5-1.93 1.64-1.93 1.64-4.19 4.5-2.42 2.9-4.92 5.1-7.81 7.5-1.93 1.64-1.93 1.64-4.19 4.5-2.42 2.9-4.92 5.1-7.81 7.5-1.93 1.64-1.93 1.64-4.19 4.5-2.42 2.9-4.92 5.1-7.81 7.5-1.93 1.64-1.93 1.64-4.19 4.5-2.42 2.9-4.92 5.1-7.81 7.5-1.93 1.64-1.93 1.64-4.19 4.5-1.96 2.35-3.68 4.08-6 6-3.3 2.73-5.81 5.67-8.5 9-2.69 2.87-2.69 2.87-5 5h-2l-1 3c-1.42 1.36-1.42 1.36-3.19 2.75-3.29 2.69-5.92 5.6-8.55 8.93-0.416 0.436-0.833 0.871-1.26 1.32h-2l-1 3c-1.45 1.39-1.45 1.39-3.25 2.81-2.41 1.98-4.23 3.76-6.25 6.19-2.42 2.9-4.92 5.1-7.81 7.5-1.93 1.64-1.93 1.64-4.19 4.5-2.4 2.88-4.85 5.05-7.73 7.41-2.46 2.2-4.47 4.69-6.51 7.27-0.416 0.436-0.833 0.871-1.26 1.32h-2l-1 3c-1.42 1.36-1.42 1.36-3.19 2.75-3.29 2.69-5.92 5.6-8.55 8.93-0.416 0.436-0.833 0.871-1.26 1.32h-2l-1 3c-1.45 1.39-1.45 1.39-3.25 2.81-2.41 1.98-4.23 3.76-6.25 6.19-2.42 2.9-4.92 5.1-7.81 7.5-1.93 1.64-1.93 1.64-4.19 4.5-2.4 2.88-4.85 5.05-7.73 7.41-2.46 2.2-4.47 4.69-6.51 7.27-0.416 0.436-0.833 0.871-1.26 1.32h-2l-1 3c-1.74 1.79-1.74 1.79-3.88 3.62l-2.12 1.85c-2.01 1.52-2.01 1.52-5.01 2.52-0.335 1.33-0.668 2.67-1 4-1.59 1.63-1.59 1.63-3.5 3.12-2.69 2.07-2.69 2.07-4.5 4.88-4.5 0.441-6.35 0.529-9.94-2.38-2.06-2.62-2.06-2.62-2.06-4.62-0.99-0.33-1.98-0.66-3-1-4.77-4.32-4.77-4.32-6-8-1.32-0.685-2.66-1.35-4-2-2.25-2-2.25-2-4-4v-2l-1.69-0.625c-2.57-1.53-4.04-3.38-5.88-5.72-2.11-2.43-4.57-4.36-7.08-6.36l-1.36-1.3v-2l-4-2v-2l-1.69-0.625c-2.58-1.53-4.05-3.39-5.89-5.73-2.04-2.36-4.38-4.27-6.77-6.27-2.01-1.69-3.9-3.42-5.65-5.38v-2l-1.69-0.625c-2.58-1.53-4.05-3.39-5.89-5.73-2.04-2.36-4.38-4.27-6.77-6.27-2.01-1.69-3.9-3.42-5.65-5.38v-2l-1.69-0.625c-2.58-1.53-4.05-3.4-5.89-5.73-1.52-1.75-3.13-3.17-4.92-4.64-2.35-1.94-4.34-3.88-6.25-6.25-2.14-2.89-2.14-2.89-5.25-4.75v-2l-1.69-0.625c-2.58-1.53-4.05-3.39-5.89-5.73-2.04-2.36-4.38-4.27-6.77-6.27-2.01-1.69-3.9-3.42-5.65-5.38v-2l-1.69-0.625c-2.58-1.53-4.05-3.4-5.89-5.73-1.52-1.75-3.13-3.17-4.92-4.64-3.26-2.7-5.79-5.74-8.5-9-1.84-1.62-3.72-3.18-5.64-4.7l-1.36-1.3v-2l-1.69-0.625c-2.57-1.53-4.04-3.38-5.88-5.72-2.11-2.43-4.57-4.36-7.08-6.36l-1.36-1.3v-2l-1.69-0.625c-2.58-1.53-4.05-3.39-5.89-5.73-2.04-2.36-4.38-4.27-6.77-6.27-2.01-1.69-3.9-3.42-5.65-5.38v-2l-1.69-0.625c-2.58-1.53-4.05-3.39-5.89-5.73-2.04-2.36-4.38-4.27-6.77-6.27-2.01-1.69-3.9-3.42-5.65-5.38v-2l-1.69-0.625c-2.58-1.53-4.05-3.4-5.89-5.73-1.52-1.75-3.13-3.17-4.92-4.64-2.35-1.94-4.34-3.88-6.25-6.25-2.14-2.89-2.14-2.89-5.25-4.75v-2l-1.69-0.625c-3.17-1.89-5-4.53-7.31-7.38l-3-2v-2l-4-2v-2l-1.69-0.625c-2.57-1.53-4.04-3.38-5.88-5.72-2.11-2.43-4.57-4.36-7.08-6.36l-1.36-1.3v-2l-1.69-0.625c-2.58-1.53-4.05-3.4-5.89-5.73-1.52-1.75-3.13-3.17-4.92-4.64-2.35-1.94-4.34-3.88-6.25-6.25-2.14-2.89-2.14-2.89-5.25-4.75v-2l-1.69-0.625c-2.58-1.53-4.05-3.4-5.89-5.73-1.52-1.75-3.13-3.17-4.92-4.64-2.35-1.94-4.34-3.88-6.25-6.25-2.14-2.89-2.14-2.89-5.25-4.75v-2l-1.69-0.625c-2.58-1.53-4.05-3.4-5.89-5.73-1.52-1.75-3.13-3.17-4.92-4.64-2.35-1.94-4.34-3.88-6.25-6.25-2.14-2.89-2.14-2.89-5.25-4.75v-2l-1.69-0.625c-3.17-1.89-5-4.53-7.31-7.38l-3-2v-2l-4-2v-2c-0.835-0.309-0.835-0.309-1.69-0.625-2.58-1.53-4.05-3.4-5.89-5.73-1.52-1.75-3.13-3.17-4.92-4.64-3.26-2.7-5.79-5.74-8.5-9-1.15-1.02-2.32-2.02-3.5-3-3.26-2.7-5.79-5.74-8.5-9-1.84-1.62-3.72-3.18-5.64-4.7l-1.36-1.3v-2c-0.835-0.309-0.835-0.309-1.69-0.625-2.58-1.53-4.05-3.4-5.89-5.73-1.52-1.75-3.13-3.17-4.92-4.64-3.26-2.7-5.79-5.74-8.5-9-1.15-1.02-2.32-2.02-3.5-3-3.26-2.7-5.79-5.74-8.5-9-1.15-1.02-2.32-2.02-3.5-3-3.26-2.7-5.79-5.74-8.5-9-1.84-1.62-3.72-3.18-5.64-4.7l-1.36-1.3v-2l-4-2v-2c-0.835-0.309-0.835-0.309-1.69-0.625-2.58-1.53-4.05-3.4-5.89-5.73-1.52-1.75-3.13-3.17-4.92-4.64-2.35-1.94-4.34-3.88-6.25-6.25-2.14-2.89-2.14-2.89-5.25-4.75v-2c-0.835-0.309-0.835-0.309-1.69-0.625-2.57-1.53-4.04-3.38-5.88-5.72-2.11-2.43-4.57-4.36-7.08-6.36l-1.36-1.3v-2c-0.835-0.309-0.835-0.309-1.69-0.625-2.58-1.53-4.05-3.39-5.89-5.73-2.04-2.36-4.38-4.27-6.77-6.27-2.01-1.69-3.9-3.42-5.65-5.38v-2c-0.835-0.309-0.835-0.309-1.69-0.625-2.58-1.53-4.05-3.39-5.89-5.73-2.04-2.36-4.38-4.27-6.77-6.27-2.01-1.69-3.9-3.42-5.65-5.38v-2c-0.835-0.309-0.835-0.309-1.69-0.625-2.58-1.53-4.05-3.4-5.89-5.73-1.52-1.75-3.13-3.17-4.92-4.64-3.26-2.7-5.79-5.74-8.5-9-1.15-1.02-2.32-2.02-3.5-3-3.26-2.7-5.79-5.74-8.5-9-1.84-1.62-3.72-3.18-5.64-4.7l-1.36-1.3v-2c-0.835-0.309-0.835-0.309-1.69-0.625-2.57-1.53-4.04-3.38-5.88-5.72-2.11-2.43-4.57-4.36-7.08-6.36l-1.36-1.3v-2c-0.835-0.309-0.835-0.309-1.69-0.625-2.58-1.53-4.05-3.39-5.89-5.73-2.04-2.36-4.38-4.27-6.77-6.27-2.01-1.69-3.9-3.42-5.65-5.38v-2l-1.69-0.625c-2.57-1.53-4.04-3.38-5.88-5.72-2.11-2.43-4.57-4.36-7.08-6.36l-1.36-1.3v-2l-4-2v-2l-1.69-0.625c-2.58-1.53-4.05-3.4-5.89-5.73-1.52-1.75-3.13-3.17-4.92-4.64-2.35-1.94-4.34-3.88-6.25-6.25-2.14-2.89-2.14-2.89-5.25-4.75v-2l-4-2v-2l-1.69-0.625c-2.57-1.53-4.04-3.38-5.88-5.72-2.11-2.43-4.57-4.36-7.08-6.36l-1.36-1.3v-2l-1.69-0.625c-3.17-1.89-5-4.53-7.31-7.38l-3-2v-2l-1.69-0.625c-2.58-1.53-4.05-3.4-5.89-5.73-1.52-1.75-3.13-3.17-4.92-4.64-3.26-2.7-5.79-5.74-8.5-9-1.73-1.54-3.51-3.01-5.3-4.48-1.67-1.49-3.05-3.02-4.45-4.77-2.14-2.89-2.14-2.89-5.25-4.75v-2l-1.69-0.625c-3.17-1.89-5-4.53-7.31-7.38-0.99-0.66-1.98-1.32-3-2v-2c-0.557-0.206-1.11-0.412-1.69-0.625-2.58-1.53-4.05-3.4-5.89-5.73-1.52-1.75-3.13-3.17-4.92-4.64-2.35-1.94-4.34-3.88-6.25-6.25-2.14-2.89-2.14-2.89-5.25-4.75v-2l-1.69-0.625c-2.58-1.53-4.05-3.39-5.89-5.73-2.04-2.36-4.38-4.27-6.77-6.27-2.01-1.69-3.9-3.42-5.65-5.38v-2l-1.69-0.625c-2.58-1.53-4.05-3.39-5.89-5.73-2.04-2.36-4.38-4.27-6.77-6.27-2.01-1.69-3.9-3.42-5.65-5.38v-2c-0.557-0.206-1.11-0.412-1.69-0.625-2.58-1.53-4.05-3.39-5.89-5.73-2.04-2.36-4.38-4.27-6.77-6.27-2.01-1.69-3.9-3.42-5.65-5.38v-2l-1.69-0.625c-2.58-1.53-4.05-3.39-5.89-5.73-2.04-2.36-4.38-4.27-6.77-6.27-2.01-1.69-3.9-3.42-5.65-5.38v-2l-4-2v-2h-2c-3.47-3.18-6.48-6.69-9.51-10.3-1.39-1.59-2.84-3.06-4.37-4.52-2.12-2.19-2.12-2.19-2.12-4.19zm1199 273c-0.277 1.94-0.277 1.94-0.195 4.13l0.0195 2.44 0.0508 2.55 0.0273 2.57c0.0236 2.1 0.0595 4.2 0.0977 6.3l-4 2v10c-1.32 0.66-2.64 1.32-4 2v10c-1.32 0.66-2.64 1.32-4 2v6c-1.32 0.66-2.64 1.32-4 2v10l-4 2c-0.0869 4.1-0.14 8.21-0.188 12.3l-0.0762 3.54c-0.00967 1.12-0.0193 2.24-0.0293 3.39-0.0157 1.03-0.0314 2.06-0.0476 3.13 0.394 3.05 1.08 3.69 3.34 5.64 0.165 0.846 0.33 1.69 0.5 2.56 0.276 2.8 0.276 2.8 3.5 4.44 0.477 2.31 0.477 2.31 0.625 5 0.163 3.64 0.163 3.64 1.38 7h3c-0.0619 0.949-0.124 1.9-0.188 2.88l0.188 3.12c0.99 0.66 1.98 1.32 3 2 0.512 2.38 0.512 2.38 0.688 5.12 0.0657 0.91 0.131 1.82 0.199 2.76 0.0374 0.699 0.0748 1.4 0.113 2.12 0.99 0.33 1.98 0.66 3 1 0.0374 0.771 0.0748 1.54 0.113 2.34 0.0657 1 0.131 2.01 0.199 3.04l0.176 3.02c0.169 0.859 0.338 1.72 0.512 2.6l3 2c1.19 3.62 1.19 3.62 2 7h3l2-3c1.33-0.402 1.33-0.402 2.69-0.812 6.46-2.32 10.6-7.36 14.8-12.5 2.23-2.51 4.89-4.5 7.46-6.65 2.07-2.27 4.03-4.64 6-7 3.54-4.07 5.56-5.62 11-6l2-7c1.98-0.33 3.96-0.66 6-1l2-7c1.33-0.0928 1.33-0.0928 2.69-0.188 4.08-1 5.66-2.61 8.31-5.81v-2c0.99-0.33 1.98-0.66 3-1 0.741-2.31 1.4-4.65 2-7 0.875-2.38 0.875-2.38 2-4 2.07-0.602 2.07-0.602 4-1 0.0269-1.81 0.0463-3.62 0.0625-5.44l0.0352-3.06c0.188-2.44 0.188-2.44-1.1-3.5-2-0.0408-4-0.0425-6 0l-1-3-1.94-0.938c-2.58-1.33-2.85-2.48-4.06-5.06-1.92-2.25-1.92-2.25-4-4h-2l-0.625-1.69c-1.53-2.57-3.38-4.04-5.72-5.88-2.43-2.11-4.36-4.57-6.36-7.08-0.428-0.447-0.856-0.895-1.3-1.36h-2l-0.625-1.69c-1.53-2.57-3.38-4.04-5.72-5.88-2.43-2.11-4.36-4.57-6.36-7.08-0.428-0.447-0.856-0.895-1.3-1.36h-2l-1-3c-2.38-2.71-2.38-2.71-5-5h-2l-1-3c-1.43-1.2-2.86-2.39-4.34-3.53-1.81-1.61-3.06-3.33-4.48-5.29-1.81-2.21-2.68-3.07-5.5-3.7-4.87-0.176-4.87-0.176-8.69 2.52zm80 81 1 2zm-40 40 1 2zm-4 4 1 2zm-4 4 1 2zm-8 8 1 2zm-4 4 1 2zm-60 54v8h1v-8h-1zm-16 30 1 2zm-8 8 1 2zm-4 4 1 2zm-4 4 1 2zm-8 8 1 2zm-8 8 1 2zm-8 8 1 2zm-8 8 1 2zm-8 8 1 2zm-8 8 1 2zm-8 8 1 2zm-8 8 1 2zm-8 8 1 2zm-8 8 1 2zm-8 8 1 2zm-8 8 1 2zm-8 8 1 2zm-8 8 1 2zm-8 8 1 2zm-8 8 1 2zm-8 8 1 2zm-8 8 1 2zm-8 8 1 2zm-8 8 1 2zm-4 4 1 2zm-183 9 4 1zm63 39c-2.3 0.434-4.5 0.5-6.84 0.594-2.65 0.499-3.35 1.48-5.16 3.41-2.31 0.744-4.64 1.42-7 2l-1 6 3 2c1.19 3.62 1.19 3.62 2 7h2l1 3c1.62 1.71 3.29 3.37 5 5 0.722 0.742 1.44 1.48 2.19 2.25 1.71 1.82 1.71 1.82 3.81 2.75l1 2 3 1c1.19 2.06 1.19 2.06 2 4h6l1 3c2.79 1.39 4.92 1.26 8 1l2-3c3.12-0.688 3.12-0.688 6-1l1-4 1.69-0.125c3.45-1.31 4.99-4.08 7.31-6.88h3v-3l1.38-1.31c3.23-3.36 3.84-8.22 4.62-12.7l-2.88-2.31c-2.29-1.84-3.44-3.16-5.12-5.69-1.67-0.342-3.33-0.674-5-1-0.474-0.495-0.949-0.99-1.44-1.5-1.58-1.8-1.58-1.8-4.62-2-0.969-0.165-1.94-0.33-2.94-0.5l-2-3c-2.07-0.464-2.07-0.464-4.46-0.398l-2.67-0.0117-2.8 0.0352c-0.92-0.0116-1.84-0.0232-2.79-0.0352l-2.68 0.0117c-1.21 0.00508-1.21 0.00508-2.45 0.0103-2.63 0.476-3.4 1.44-5.14 3.39zm48 14 1 4zm-4 10 1 2z" fill="#FBFCFE"/>
<path transform="translate(500)" d="m0 0h91c-2.15 4.3-4.33 7.85-8 11-3.88 0.938-3.88 0.938-7 1-0.33 0.99-0.66 1.98-1 3-2.44 2.69-2.44 2.69-5 5h-2c-0.33 0.99-0.66 1.98-1 3-0.99 0.66-1.98 1.32-3 2-0.33 0.99-0.66 1.98-1 3h-7c-0.66 1.32-1.32 2.64-2 4h-2v2c-0.928 0.0928-0.928 0.0928-1.88 0.188-2.4 0.641-2.4 0.641-3.38 3.38-0.371 1.21-0.371 1.21-0.75 2.44h-2c-0.33 0.99-0.66 1.98-1 3-0.99 0.66-1.98 1.32-3 2-1.22 3.56-1.22 3.56-2 7h-2c-0.33 0.99-0.66 1.98-1 3-2.44 2.69-2.44 2.69-5 5h-2c-0.0206 1.03-0.0412 2.06-0.0625 3.12-1.14 4.72-2.68 5.6-6.38 8.41-1.87 1.46-1.87 1.46-2.06 4.46-0.685 4.11-2.74 5.03-5.92 7.48-2.3 2.21-2.3 4.43-2.58 7.52-0.99 0.66-1.98 1.32-3 2-0.165 0.99-0.33 1.98-0.5 3-0.165 0.99-0.33 1.98-0.5 3-0.99 0.66-1.98 1.32-3 2-0.165 0.99-0.33 1.98-0.5 3-0.165 0.99-0.33 1.98-0.5 3-0.99 0.66-1.98 1.32-3 2-0.165 0.99-0.33 1.98-0.5 3-0.165 0.99-0.33 1.98-0.5 3-0.99 0.66-1.98 1.32-3 2-0.47 2.36-0.47 2.36-0.5 5-0.0938 2.69-0.0938 2.69-0.5 5-0.99 0.66-1.98 1.32-3 2-0.47 2.36-0.47 2.36-0.5 5-0.0938 2.69-0.0938 2.69-0.5 5-0.99 0.66-1.98 1.32-3 2-0.457 1.89-0.457 1.89-0.406 4.06-0.0329 1.19-0.0329 1.19-0.0664 2.41-0.00902 0.833-0.018 1.67-0.0273 2.52-0.0178 1.65-0.0485 3.29-0.0938 4.94-0.00709 0.731-0.0142 1.46-0.0215 2.21-0.385 1.85-0.385 1.85-3.38 3.85-0.511 2.71-0.511 2.71-0.512 5.88-0.0354 1.17-0.0709 2.33-0.107 3.54-0.0226 1.22-0.0451 2.45-0.0684 3.71-0.0342 1.23-0.0683 2.46-0.104 3.73-0.0827 3.05-0.152 6.1-0.209 9.14-0.99 0.33-1.98 0.66-3 1 0.491 0.541 0.982 1.08 1.49 1.64 1.88 2.93 1.82 4.66 1.7 8.11-0.0406 1.48-0.0406 1.48-0.082 2.98-0.0348 0.748-0.0696 1.5-0.105 2.27h-3c0.733 1.05 0.733 1.05 1.48 2.11 1.75 3.33 1.87 5.32 1.81 9.06-0.0145 1.74-0.0145 1.74-0.0293 3.51-0.0251 1.2-0.0503 2.4-0.0762 3.63-0.0203 1.83-0.0203 1.83-0.041 3.69-0.0353 3-0.0846 6-0.146 9 0.65 0.265 1.3 0.53 1.97 0.803 0.67 0.395 1.34 0.79 2.03 1.2 0.504 3.15 0.504 3.15 0.562 6.94-0.193 4.78-0.193 4.78 1.95 8.71 0.49 0.446 0.98 0.892 1.48 1.35 0.293 2.26 0.293 2.26 0.188 4.69-0.0406 1.21-0.0406 1.21-0.082 2.45-0.0348 0.615-0.0696 1.23-0.105 1.86 1.32 0.66 2.64 1.32 4 2v6c0.928 0.309 0.928 0.309 1.88 0.625 2.97 1.92 3.16 4.05 4.12 7.38 0.66 0.66 1.32 1.32 2 2 0.667 2 1.33 4 2 6 0.66 0.66 1.32 1.32 2 2 0.693 1.99 1.36 3.99 2 6 1.27 3.18 1.27 3.18 4 5 1.25 1.74 1.25 1.74 2.56 3.88 0.652 1.05 0.652 1.05 1.32 2.12 1.12 2.01 1.12 2.01 2.12 5.01 2 1.21 2 1.21 4 2v2c1.32 0.66 2.64 1.32 4 2v2c0.859 0.371 0.859 0.371 1.73 0.75 2.62 1.44 4.41 3.13 6.52 5.25 0.706 0.701 1.41 1.4 2.14 2.12 1.61 1.88 1.61 1.88 1.61 3.88 1.32 0.66 2.64 1.32 4 2v2c2.31 0.33 4.62 0.66 7 1 0.495 1.48 0.495 1.48 1 3 2 1.21 2 1.21 4 2v2c1.32 0.66 2.64 1.32 4 2v2c2.31 0.33 4.62 0.66 7 1 0.33 0.99 0.66 1.98 1 3 2.31 0.33 4.62 0.66 7 1 0.33 0.99 0.66 1.98 1 3 2.31 0.33 4.62 0.66 7 1 0.33 0.99 0.66 1.98 1 3 2.08 0.732 2.08 0.732 4.5 1.06 2.47 0.41 2.47 0.41 4.5 0.938 0.33 0.66 0.66 1.32 1 2 2.26 0.356 4.49 0.443 6.77 0.559 2.23 0.441 2.23 0.441 3.61 1.95 3.08 2.84 7.69 1.98 11.7 2.09 0.968 0.134 1.94 0.268 2.93 0.406 0.99 1.48 0.99 1.48 2 3 2.57 0.316 4.9 0.437 7.48 0.432 0.771 0.0102 1.54 0.0204 2.34 0.0309 2.55 0.0303 5.11 0.0394 7.66 0.0485 1.77 0.0168 3.54 0.035 5.31 0.0544 4.66 0.0476 9.32 0.0773 14 0.103 4.75 0.0298 9.5 0.0763 14.3 0.121 9.33 0.0862 18.7 0.153 28 0.209 0.66-1.32 1.32-2.64 2-4h14c0.66-1.32 1.32-2.64 2-4h10c0.66-1.32 1.32-2.64 2-4h10c0.66-1.32 1.32-2.64 2-4h6c0.33-0.99 0.66-1.98 1-3 2.33-0.667 4.67-1.33 7-2 0.33-0.99 0.66-1.98 1-3h7c0.206-0.639 0.412-1.28 0.625-1.94l1.38-2.06c1.99-0.381 3.99-0.713 6-1l1.56-1.56c1.44-1.44 1.44-1.44 4.12-1.62 0.763 0.0619 1.53 0.124 2.31 0.188 0.66-1.32 1.32-2.64 2-4h2c0.66-1.32 1.32-2.64 2-4h6c0.66-1.32 1.32-2.64 2-4h2c0.34-0.866 0.34-0.866 0.688-1.75 1.7-2.91 3.49-4.41 6.31-6.25 2.81-0.25 2.81-0.25 5 0 0.268-0.598 0.536-1.2 0.812-1.81 1.19-2.19 2.28-3.6 4.19-5.19h2c0.66-1.32 1.32-2.64 2-4h2c0.371-0.866 0.371-0.866 0.75-1.75 1.43-2.58 3.03-4.31 5.25-6.25h2c0.66-1.32 1.32-2.64 2-4h2c0.66-1.32 1.32-2.64 2-4h2c0.66-1.32 1.32-2.64 2-4h3c-0.144-1.03-0.289-2.06-0.438-3.12 0.48-4.25 0.719-4.58 3.81-7.12 0.626-0.459 1.25-0.918 1.9-1.39 2-1.43 2-1.43 3.73-4.36h3c-0.0825-1.05-0.165-2.1-0.25-3.19 0.289-4.4 1.08-5.82 4.25-8.81 2.25-0.812 2.25-0.812 4-1v-6c1.32-0.66 2.64-1.32 4-2v-6c1.32-0.66 2.64-1.32 4-2v-6c1.32-0.66 2.64-1.32 4-2v-6c1.32-0.66 2.64-1.32 4-2v-6c1.32-0.66 2.64-1.32 4-2v-14c1.32-0.66 2.64-1.32 4-2v-14c1.32-0.66 2.64-1.32 4-2v-18c1.32-0.66 2.64-1.32 4-2l-1-56c-0.99-0.33-1.98-0.66-3-1-0.0374-1.19-0.0748-2.38-0.113-3.61-0.0657-1.57-0.132-3.13-0.199-4.7-0.0226-0.786-0.0451-1.57-0.0684-2.38-0.0532-1.14-0.0532-1.14-0.107-2.29-0.0262-0.696-0.0524-1.39-0.0793-2.11-0.547-2.4-1.66-3.24-3.43-4.9-0.437-2.59-0.501-5.1-0.594-7.72-0.134-0.752-0.268-1.5-0.406-2.28l-3-2c-0.406-2.06-0.406-2.06-0.5-4.44-0.151-3.81-0.753-4.98-3.5-7.56-0.683-2.33-1.35-4.66-2-7-0.66-0.33-1.32-0.66-2-1-0.0619-0.887-0.124-1.77-0.188-2.69-0.902-3.68-1.4-4.06-4.25-6.25-3.76-2.9-4.49-5.41-5.56-10.1l-3-2v-2c-0.99-0.33-1.98-0.66-3-1v-6c-0.99-0.33-1.98-0.66-3-1-1.71-1.62-3.37-3.29-5-5l-2.25-1.94c-1.75-2.06-1.75-2.06-2.25-5.12-0.204-3.03-0.204-3.03-2.44-4.69-0.681-0.412-1.36-0.825-2.06-1.25-2.21-2.21-4.12-4.5-6-7v-2h75v2c0.639 0.206 1.28 0.412 1.94 0.625 0.681 0.454 1.36 0.908 2.06 1.38 0.374 1.99 0.707 3.99 1 6l3 2v2l4 2v6c1.98 0.99 1.98 0.99 4 2v10c1.32 0.66 2.64 1.32 4 2 0.381 1.99 0.713 3.99 1 6 0.979 1.02 1.98 2.02 3 3 0.333 1.67 0.667 3.33 1 5 0.501 0.45 1 0.9 1.52 1.36 1.97 2.18 1.79 3.43 1.67 6.32-0.0271 0.808-0.0541 1.62-0.082 2.45-0.0522 0.922-0.0522 0.922-0.105 1.86 0.648 0.227 1.3 0.454 1.96 0.688 2.04 1.31 2.04 1.31 2.54 3.62 0.0193 0.887 0.0387 1.77 0.0586 2.69 0.00506 2.64 0.00506 2.64 0.438 5l3 2c0.461 3.61 0.504 7.17 0.594 10.8 0.134 1.05 0.268 2.1 0.406 3.19l3 2c0.341 1.88 0.341 1.88 0.293 4.13-0.0145 1.21-0.0145 1.21-0.0293 2.44-0.0251 0.842-0.0503 1.68-0.0762 2.55l-0.041 2.57c-0.0354 2.1-0.0892 4.2-0.146 6.3 1.32 0.66 2.64 1.32 4 2 0.0694 8.18 0.123 16.4 0.155 24.5 0.0157 3.8 0.0369 7.6 0.0709 11.4 0.0325 3.66 0.0505 7.33 0.0583 11 0.00555 1.4 0.0164 2.8 0.0326 4.2 0.0217 1.96 0.023 3.91 0.0234 5.87 0.00666 1.11 0.0133 2.23 0.0202 3.38-0.119 0.869-0.238 1.74-0.361 2.63l-3 2c-0.459 2.29-0.459 2.29-0.406 4.94-0.0219 0.977-0.0438 1.95-0.0664 2.96-0.00902 1.02-0.018 2.05-0.0273 3.1-0.0178 2.02-0.0484 4.04-0.0938 6.06l-0.0215 2.72-0.385 2.21-3 2c-0.473 3.28-0.473 3.28-0.5 7-0.0938 3.81-0.0938 3.81-0.5 7l-3 2c-0.47 2.36-0.47 2.36-0.5 5-0.0938 2.69-0.0938 2.69-0.5 5l-3 2c-0.47 2.36-0.47 2.36-0.5 5-0.0938 2.69-0.0938 2.69-0.5 5l-3 2c-0.47 2.36-0.47 2.36-0.5 5-0.0938 2.69-0.0938 2.69-0.5 5l-3 2c-0.165 0.99-0.33 1.98-0.5 3-0.165 0.99-0.33 1.98-0.5 3l-3 2c-0.165 0.99-0.33 1.98-0.5 3-0.165 0.99-0.33 1.98-0.5 3l-3 2c-0.0825 0.908-0.165 1.82-0.25 2.75-0.975 4.22-2.86 5.17-6.17 7.73-2.3 2.21-2.3 4.43-2.58 7.52l-3 2c-0.0825 0.908-0.165 1.82-0.25 2.75-0.846 3.67-1.4 4.05-4.25 6.25-3.08 2.28-3.08 2.28-4 6-0.686 4.11-2.76 5.04-5.94 7.5-1.87 1.49-1.87 1.49-2.06 4.5-0.675 4.05-2.54 5.05-5.67 7.5-2.08 1.61-2.08 1.61-4.33 4.5-2.06 2.47-3.75 4.02-6.25 5.94-2.96 2.41-3.2 2.8-3.94 6.81-0.103 1.07-0.206 2.14-0.312 3.25-2 1.31-2 1.31-4 2-0.33 0.66-0.66 1.32-1 2h-2c-0.33 0.99-0.66 1.98-1 3-1.42 1.36-1.42 1.36-3.19 2.75-3.29 2.69-5.92 5.6-8.55 8.93-0.416 0.436-0.833 0.871-1.26 1.32h-2c-0.33 0.99-0.66 1.98-1 3-2.31 0.33-4.62 0.66-7 1v2c-0.639 0.268-1.28 0.536-1.94 0.812-2.39 1.07-2.39 1.07-3.06 4.19-2.34 2.97-3.64 3.91-7.38 4.81-4.32 1.42-5.72 3.18-8.36 6.73-0.416 0.482-0.833 0.964-1.26 1.46h-2c-0.33 0.99-0.66 1.98-1 3-2.31 0.33-4.62 0.66-7 1-0.33 0.99-0.66 1.98-1 3l-3.25 0.812c-3.95 0.88-3.95 0.88-6.25 4.19-2.98 3.58-5.06 3.97-9.5 5-0.33 0.66-0.66 1.32-1 2-2.33 0.667-4.67 1.33-7 2-0.33 0.66-0.66 1.32-1 2-2.65 0.594-5.29 0.742-8 1-0.33 0.99-0.66 1.98-1 3-1.99 0.704-3.99 1.37-6 2-0.33 0.66-0.66 1.32-1 2-2.55 0.356-5.08 0.444-7.65 0.559-0.775 0.146-1.55 0.291-2.35 0.441-0.66 0.99-1.32 1.98-2 3-2.58 0.453-5.07 0.503-7.69 0.594-0.763 0.134-1.53 0.268-2.31 0.406-0.66 0.99-1.32 1.98-2 3-3.61 0.461-7.17 0.504-10.8 0.594l-3.19 0.406c-0.66 0.99-1.32 1.98-2 3-3.61 0.461-7.17 0.504-10.8 0.594l-3.19 0.406c-0.66 0.99-1.32 1.98-2 3-2.21 0.385-2.21 0.385-4.94 0.406-1.47 0.0329-1.47 0.0329-2.96 0.0664-2.07 0.0182-4.14 0.0365-6.2 0.0547-1.47 0.0329-1.47 0.0329-2.96 0.0664-0.898 0.00709-1.8 0.0142-2.72 0.0215-0.731 0.127-1.46 0.254-2.21 0.385-0.66 0.99-1.32 1.98-2 3-1.86 0.381-1.86 0.381-4.14 0.388-0.854 0.00946-1.71 0.0189-2.59 0.0287-1.39-0.00911-1.39-0.00911-2.8-0.0184-0.947 0.00287-1.89 0.00574-2.87 0.0087-2 0.00204-4.01-0.00351-6.01-0.016-3.08-0.016-6.15-1.61e-4 -9.22 0.019-1.94-0.00198-3.89-0.00583-5.83-0.0117-0.924 0.00607-1.85 0.0121-2.8 0.0184-0.854-0.00946-1.71-0.0189-2.59-0.0287-0.753-0.00239-1.51-0.00477-2.28-0.00723-1.86-0.381-1.86-0.381-3.86-3.38-2.68-0.461-2.68-0.461-5.81-0.406-1.74-0.0329-1.74-0.0329-3.51-0.0664-1.21-0.00902-2.43-0.018-3.68-0.0273-2.4-0.0178-4.79-0.0484-7.19-0.0938-1.6-0.0106-1.6-0.0106-3.23-0.0215-0.852-0.127-1.7-0.254-2.58-0.385-0.99-1.48-0.99-1.48-2-3-3.28-0.473-3.28-0.473-7-0.5-3.81-0.0938-3.81-0.0938-7-0.5-0.99-1.48-0.99-1.48-2-3-2.36-0.47-2.36-0.47-5-0.5-2.69-0.0938-2.69-0.0938-5-0.5-0.99-1.48-0.99-1.48-2-3-2.36-0.47-2.36-0.47-5-0.5-2.69-0.0938-2.69-0.0938-5-0.5-0.99-1.48-0.99-1.48-2-3-2.1-0.507-2.1-0.507-4.44-0.562-3.53-0.192-4.48-0.382-7.56-2.44v-2c-1.42 0.0928-1.42 0.0928-2.88 0.188l-3.12-0.188c-0.99-1.48-0.99-1.48-2-3-0.99-0.144-1.98-0.289-3-0.438-0.99-0.186-1.98-0.371-3-0.562-1.19-2-1.19-2-2-4-0.99-0.33-1.98-0.66-3-1-0.33-0.66-0.66-1.32-1-2-1.15-0.309-2.31-0.619-3.5-0.938-1.15-0.351-2.31-0.701-3.5-1.06-0.495-1.48-0.495-1.48-1-3-1.05-0.0412-2.1-0.0825-3.19-0.125-4.84-1.11-5.74-3.11-8.81-6.88-2.35-1.06-4.44-1.5-7-2v-2c-0.99-0.33-1.98-0.66-3-1-2.84-2.61-5.35-5.41-7.81-8.38-2.84-3.38-6.02-6.15-9.38-9-2.23-2-3.96-4.28-5.81-6.62-1.98-1.69-3.98-3.35-6-5-1.69-1.65-3.36-3.31-5-5-0.866-0.742-0.866-0.742-1.75-1.5-1.69-2.02-1.79-3.94-2.25-6.5-1.5-1.5-3.03-2.98-4.56-4.44-2.44-2.56-2.44-2.56-3.44-5.56-0.99-0.33-1.98-0.66-3-1-0.0825-1.11-0.165-2.23-0.25-3.38-0.329-3.68-0.329-3.68-2.81-5.06-0.639-0.186-1.28-0.371-1.94-0.562v-2c-0.99-0.33-1.98-0.66-3-1-0.33-2.31-0.66-4.62-1-7-0.99-0.33-1.98-0.66-3-1-0.0374-0.699-0.0748-1.4-0.113-2.12-0.0657-0.91-0.131-1.82-0.199-2.76-0.058-0.905-0.116-1.81-0.176-2.74-0.3-2.75-0.3-2.75-3.51-4.38-0.333-2-0.667-4-1-6-0.99-0.66-1.98-1.32-3-2-0.333-2-0.667-4-1-6-0.99-0.66-1.98-1.32-3-2-0.453-2.58-0.503-5.07-0.594-7.69-0.134-0.763-0.268-1.53-0.406-2.31-0.99-0.66-1.98-1.32-3-2-0.492-2.57-0.834-4.97-1.06-7.56-0.234-2.51-0.54-4.94-0.938-7.44-0.66-0.33-1.32-0.66-2-1-0.312-2.55-0.513-5-0.625-7.56-0.0387-0.711-0.0773-1.42-0.117-2.15-0.0945-1.76-0.177-3.52-0.258-5.28-0.99-0.33-1.98-0.66-3-1v-89c1.98-0.99 1.98-0.99 4-2v-14c1.98-0.99 1.98-0.99 4-2v-10c1.98-0.99 1.98-0.99 4-2v-14c1.98-0.99 1.98-0.99 4-2v-6c1.98-0.99 1.98-0.99 4-2v-6c1.98-0.99 1.98-0.99 4-2v-10c1.98-0.99 1.98-0.99 4-2 0.407-2.32 0.744-4.66 1-7 0.99-0.495 0.99-0.495 2-1 0.309-1.16 0.619-2.31 0.938-3.5 0.351-1.16 0.701-2.31 1.06-3.5 0.99-0.33 1.98-0.66 3-1 1.21-2 1.21-2 2-4h2v-10c1.32-0.66 2.64-1.32 4-2 1.27-2.03 1.27-2.03 2-4h2c0.0619-1.05 0.124-2.1 0.188-3.19 0.951-4.46 2.3-5.99 5.81-8.81h2c-0.155-1.33-0.155-1.33-0.312-2.69 0.312-3.31 0.312-3.31 2.56-6.06 2.24-1.84 4.09-3.16 6.75-4.25v-2c2.38-2.63 2.38-2.63 5-5h2v-7c0.66-0.33 1.32-0.66 2-1 0.99 0.33 1.98 0.66 3 1v-4zm-69 260 1 3zm424 2 1 2zm-20 28 1 2zm-4 4 1 2zm-4 4 1 2zm-8 8 1 2zm-4 4 1 2zm-4 4 1 2z" fill="#FBFCFE"/>
<path transform="translate(196 291)" d="m0 0c0.784 0.0412 1.57 0.0825 2.38 0.125 0.309 1.58 0.309 1.58 0.625 3.19 1.21 4.34 3.89 6.05 7.38 8.81 1.38 2.81 1.38 2.81 2 5h4c0.33 0.99 0.66 1.98 1 3 2 1.67 4 3.34 6 5v2c0.577 0.227 1.16 0.454 1.75 0.688 2.84 1.66 4.2 3.74 6.25 6.31 1.11 0.979 2.23 1.94 3.38 2.88 2.45 2.04 4.54 4.1 6.56 6.56 2.76 3.35 5.87 6.06 9.18 8.87 1.71 1.54 3.14 3.09 4.57 4.88 2.25 2.74 4.52 4.65 7.31 6.81 2.5 2.38 4.77 4.71 6.88 7.44 2.26 2.72 4.69 4.83 7.39 7.09 3.2 2.71 6.05 5.59 8.61 8.91 2.25 2.72 4.68 4.82 7.38 7.08 2.41 2.05 4.61 4.15 6.75 6.48v2c1.49 0.495 1.49 0.495 3 1 1.36 1.42 1.36 1.42 2.75 3.19 2.63 3.2 5.46 5.77 8.65 8.4 2.16 1.91 3.82 4.14 5.6 6.41 1.11 0.835 1.11 0.835 2.25 1.69 0.577 0.433 1.15 0.866 1.75 1.31v2c0.99 0.33 1.98 0.66 3 1 1.5 1.56 1.5 1.56 3 3.44 1.96 2.45 3.32 3.78 6 5.56v2c1.32 0.66 2.64 1.32 4 2v6c0.557 0.227 1.11 0.454 1.69 0.688 3.93 2.23 6.66 5.48 9.44 9 1.84 2.5 1.84 2.5 4.88 4.31v2c0.578 0.248 1.15 0.495 1.75 0.75 2.58 1.43 4.31 3.03 6.25 5.25v2c0.99 0.33 1.98 0.66 3 1 4.22 3.52 5.29 5.65 6 11 0.99 0.66 1.98 1.32 3 2v2c1.32 0.66 2.64 1.32 4 2v6c0.578 0.248 1.15 0.495 1.75 0.75 2.68 1.49 4.36 2.82 6.25 5.25 0.25 3.25 0.25 3.25 0 6 1.32 0.66 2.64 1.32 4 2v2c1.32 0.66 2.64 1.32 4 2v6c0.578 0.248 1.15 0.495 1.75 0.75 2.67 1.48 4.33 2.87 6.25 5.25 0.359 2 0.695 4 1 6 0.99 0.66 1.98 1.32 3 2 0.188 3.12 0.188 3.12 0 6 0.578 0.227 1.15 0.454 1.75 0.688 2.91 1.7 4.41 3.49 6.25 6.31 0.25 2.81 0.25 2.81 0 5 0.578 0.247 1.15 0.495 1.75 0.75 5.01 2.78 6.67 5.85 8.25 11.2 1.08 2.77 1.54 3.73 4.12 5.25 0.619 0.247 1.24 0.495 1.88 0.75v6c0.928 0.309 0.928 0.309 1.88 0.625 2.97 1.92 3.02 4.07 4.12 7.38 0.825 0.804 1.65 1.61 2.5 2.44 2.98 3.05 3.43 5.5 4.5 9.56 0.99 0.66 1.98 1.32 3 2v2c1.32 0.66 2.64 1.32 4 2v6c0.619 0.206 1.24 0.412 1.88 0.625 2.97 1.92 3.02 4.07 4.12 7.38 0.804 0.804 1.61 1.61 2.44 2.44 2.97 2.97 4.07 5.66 5.56 9.56 1.29 3.18 1.29 3.18 4 5l0.875 3.44c0.738 3.62 0.738 3.62 3.25 5 0.619 0.186 1.24 0.371 1.88 0.562v2c0.619 0.206 1.24 0.412 1.88 0.625 3 1.94 3.18 4.01 4.12 7.38 1.08 2.77 1.54 3.73 4.12 5.25 0.619 0.247 1.24 0.495 1.88 0.75v6c1.32 0.66 2.64 1.32 4 2v2c0.66 0.33 1.32 0.66 2 1 2.05 1.6 4.06 3.27 6 5v2c0.675 0.0374 1.35 0.0748 2.05 0.113 1.34 0.0986 1.34 0.0986 2.7 0.199 0.882 0.058 1.76 0.116 2.67 0.176 2.93 0.582 4.27 1.67 6.58 3.51 3.15 0.72 3.15 0.72 6 1 0.66-1.32 1.32-2.64 2-4h26c0.66-1.32 1.32-2.64 2-4 2.79-0.0807 5.58-0.14 8.38-0.188 1.19-0.0377 1.19-0.0377 2.41-0.0762 2.07-0.0264 4.15 0.109 6.22 0.264 0.66 0.99 1.32 1.98 2 3 0.928 0.124 1.86 0.247 2.81 0.375 4.13 0.809 5.44 2.52 8.19 5.62 1.14 1.08 1.14 1.08 2.31 2.19 1.69 1.81 1.69 1.81 1.69 3.81 1.32 0.66 2.64 1.32 4 2v2c0.99 0.33 1.98 0.66 3 1 1.5 1.56 1.5 1.56 3 3.44 1.96 2.45 3.32 3.78 6 5.56v2c1.32 0.66 2.64 1.32 4 2v2c0.99 0.33 1.98 0.66 3 1 1.32 1.38 1.32 1.38 2.69 3.12 2.86 3.48 6.01 6.34 9.43 9.26 3.56 3.06 6.7 6.38 9.69 9.99 2.9 3.46 6.16 6.29 9.65 9.14 0.508 0.489 1.02 0.977 1.54 1.48v2c1.32 0.66 2.64 1.32 4 2v2c0.99 0.33 1.98 0.66 3 1 1.36 1.42 1.36 1.42 2.75 3.19 2.64 3.21 5.47 5.78 8.67 8.42 1.58 1.39 1.58 1.39 3.52 3.83 2.5 3.11 5.38 5.48 8.45 8.01 0.531 0.512 1.06 1.02 1.61 1.55v2c0.866 0.371 0.866 0.371 1.75 0.75 2.71 1.51 4.37 2.76 6.25 5.25 0.559 3.91 0.633 6.04-1.56 9.38-3.12 2.08-5.74 2.34-9.44 2.62-0.33 0.99-0.66 1.98-1 3-2.31 0.33-4.62 0.66-7 1-0.33 0.99-0.66 1.98-1 3-2.36 3-3.69 3.92-7.44 4.88-3.78 0.843-3.78 0.843-6.06 4.12-3.03 3.64-5.05 3.73-9.5 5-0.825 1.01-1.65 2.02-2.5 3.06-2.5 2.94-2.5 2.94-6.31 3.81-1.58 0.0619-1.58 0.0619-3.19 0.125-0.33 0.99-0.66 1.98-1 3-2.33 0.678-4.66 1.34-7 2-0.66 0.99-1.32 1.98-2 3h-2c-0.33 0.99-0.66 1.98-1 3l-3.25 0.812c-3.95 0.88-3.95 0.88-6.25 4.19-2.99 3.59-5.08 3.89-9.5 5-0.33 0.99-0.66 1.98-1 3-2.69 1.92-5.1 3.03-8.25 4.06-2.89 0.625-2.89 0.625-3.75 2.94-2.32 0.407-4.66 0.744-7 1-0.33 0.99-0.66 1.98-1 3l-3.25 0.812c-3.95 0.88-3.95 0.88-6.25 4.19-3.01 3.61-4.97 4.09-9.5 5-0.681 0.309-1.36 0.619-2.06 0.938-1.94 0.0625-1.94 0.0625-5.19-2.25-0.908-0.887-1.82-1.77-2.75-2.69v-2c-0.598-0.268-1.2-0.536-1.81-0.812-2.31-1.26-3.6-2.09-5.19-4.19-0.268-1.11-0.536-2.23-0.812-3.38-1.46-4.46-3.64-5.68-7.19-8.62-0.75-3.25-0.75-3.25-1-6-0.66-0.33-1.32-0.66-2-1-0.407-2.32-0.744-4.66-1-7-0.99-0.33-1.98-0.66-3-1-0.667-1.33-1.33-2.67-2-4-0.99-0.33-1.98-0.66-3-1l-1-7c-0.99-0.33-1.98-0.66-3-1l-0.25-2.81c-0.865-3.68-1.69-4.21-4.75-6.19v-2c-0.99-0.33-1.98-0.66-3-1v-6c-0.99-0.33-1.98-0.66-3-1-4.22-3.52-5.29-5.65-6-11-0.99-0.66-1.98-1.32-3-2l-0.812-3.31c-1.2-3.72-1.41-4.15-4.31-6.25-2.88-2.44-2.88-2.44-3.25-5.75 0.124-0.887 0.248-1.77 0.375-2.69-0.99-0.33-1.98-0.66-3-1-3.52-2.85-4.86-4.32-5.81-8.81-0.0928-1.58-0.0928-1.58-0.188-3.19-0.99-0.33-1.98-0.66-3-1-0.0309-1.3-0.0309-1.3-0.0625-2.62-1.03-3.71-1.59-4.15-4.5-6.38-3.39-2.61-3.39-2.61-3.88-6.38 0.144-0.866 0.289-1.73 0.438-2.62-0.99-0.33-1.98-0.66-3-1-0.667-1.33-1.33-2.67-2-4-0.99-0.33-1.98-0.66-3-1-0.103-0.949-0.206-1.9-0.312-2.88-0.373-3.42-0.373-3.42-3.69-5.12l-0.812-3.31c-1.2-3.72-1.41-4.15-4.31-6.25-2.88-2.44-2.88-2.44-3.25-5.75 0.124-0.887 0.248-1.77 0.375-2.69-0.99-0.33-1.98-0.66-3-1-3.52-2.85-4.86-4.32-5.81-8.81-0.0619-1.05-0.124-2.1-0.188-3.19-0.99-0.33-1.98-0.66-3-1-0.0309-1.3-0.0309-1.3-0.0625-2.62-1.03-3.71-1.59-4.15-4.5-6.38-3.39-2.61-3.39-2.61-3.88-6.38 0.217-1.3 0.217-1.3 0.438-2.62-0.99-0.33-1.98-0.66-3-1l-2-4c-0.99-0.33-1.98-0.66-3-1-0.155-1.42-0.155-1.42-0.312-2.88-0.373-3.42-0.373-3.42-3.69-5.12l-0.812-3.31c-1.46-4.52-3.6-5.71-7.19-8.69-0.688-3.19-0.688-3.19-1-6-0.99-0.66-1.98-1.32-3-2-0.144-1.16-0.289-2.31-0.438-3.5-0.186-1.16-0.371-2.31-0.562-3.5-1.83-1.33-1.83-1.33-4-2-2.68-1.96-3.01-3.04-3.81-6.38-0.9-3.85-0.9-3.85-4.25-6.12-3.67-3.13-3.41-4.87-3.94-9.5-1.94-1.51-1.94-1.51-4-2v-2c-0.99-0.33-1.98-0.66-3-1-0.155-1.42-0.155-1.42-0.312-2.88-0.373-3.42-0.373-3.42-3.69-5.12l-0.812-3.31c-1.2-3.72-1.41-4.15-4.31-6.25-2.88-2.44-2.88-2.44-3.25-5.75 0.124-0.887 0.248-1.77 0.375-2.69-0.99-0.33-1.98-0.66-3-1-3.52-2.85-4.86-4.32-5.81-8.81-0.0619-1.05-0.124-2.1-0.188-3.19-0.99-0.33-1.98-0.66-3-1-0.0825-0.928-0.165-1.86-0.25-2.81-0.865-3.68-1.69-4.21-4.75-6.19v-2c-0.99-0.33-1.98-0.66-3-1v-6c-0.99-0.33-1.98-0.66-3-1-0.667-1.33-1.33-2.67-2-4-0.99-0.33-1.98-0.66-3-1-0.103-0.949-0.206-1.9-0.312-2.88-0.373-3.42-0.373-3.42-3.69-5.12-0.268-1.09-0.536-2.19-0.812-3.31-1.2-3.72-1.41-4.15-4.31-6.25-2.88-2.44-2.88-2.44-3.25-5.75 0.186-1.33 0.186-1.33 0.375-2.69-0.99-0.33-1.98-0.66-3-1-3.52-2.85-4.86-4.32-5.81-8.81-0.0619-1.05-0.124-2.1-0.188-3.19-0.99-0.33-1.98-0.66-3-1-0.0206-0.866-0.0412-1.73-0.0625-2.62-1.03-3.71-1.59-4.15-4.5-6.38-3.39-2.61-3.39-2.61-3.88-6.38 0.144-0.866 0.289-1.73 0.438-2.62-0.99-0.33-1.98-0.66-3-1-3.52-2.85-4.86-4.32-5.81-8.81-0.0619-1.05-0.124-2.1-0.188-3.19-0.99-0.33-1.98-0.66-3-1-0.268-1.07-0.536-2.14-0.812-3.25-1.2-3.78-1.37-4.2-4.31-6.31-2.88-2.44-2.88-2.44-3.25-5.75 0.186-1.33 0.186-1.33 0.375-2.69-0.99-0.33-1.98-0.66-3-1-0.667-1.33-1.33-2.67-2-4-0.99-0.33-1.98-0.66-3-1-0.495-3.47-0.495-3.47-1-7-0.99-0.33-1.98-0.66-3-1-0.268-1.07-0.536-2.14-0.812-3.25-1.2-3.78-1.37-4.2-4.31-6.31-2.88-2.44-2.88-2.44-3.25-5.75 0.186-1.33 0.186-1.33 0.375-2.69-1.49-0.495-1.49-0.495-3-1-0.495-3.47-0.495-3.47-1-7-0.99-0.33-1.98-0.66-3-1-0.667-1.33-1.33-2.67-2-4-0.99-0.33-1.98-0.66-3-1-0.124-0.969-0.248-1.94-0.375-2.94-0.206-1.01-0.412-2.02-0.625-3.06-0.99-0.495-0.99-0.495-2-1-4.91-4.1-4.91-4.1-5.31-8.31 0.103-0.887 0.206-1.77 0.312-2.69-0.99-0.33-1.98-0.66-3-1-4.38-3.63-5.64-6.55-7-12-0.99-0.495-0.99-0.495-2-1-0.248-1.07-0.495-2.14-0.75-3.25-1.51-4.54-3.63-5.75-7.25-8.75-0.688-3.19-0.688-3.19-1-6-0.99-0.66-1.98-1.32-3-2v-2c-1.49-0.495-1.49-0.495-3-1-0.706-2.05-1.01-4.06-1.38-6.19-0.309-0.897-0.309-0.897-0.625-1.81-1.49-0.495-1.49-0.495-3-1-0.103-0.949-0.206-1.9-0.312-2.88-0.373-3.42-0.373-3.42-3.69-5.12-0.333-2-0.667-4-1-6-0.99-0.66-1.98-1.32-3-2-0.188-3.12-0.188-3.12 0-6-0.99-0.33-1.98-0.66-3-1-4.85-4.06-4.85-4.06-5.44-7.69 0.648-3.42 1.58-4.27 5.06-4.44zm51.4 93.1 1 2zm40 64 1 2zm160 256 1 2zm92 21c-0.356 2.14-0.356 2.14-0.312 4.5-0.0168 0.794-0.0335 1.59-0.0508 2.41 0.12 0.691 0.24 1.38 0.363 2.09l3 2c0.336 2.21 0.336 2.21 0.375 4.81 0.275 3.96 0.46 4.98 3 8.25 2.53 2.08 2.53 2.08 5.62 2.94-0.144 0.866-0.289 1.73-0.438 2.62 0.499 3.85 0.957 4.2 3.81 6.56 0.626 0.468 1.25 0.936 1.9 1.42 1.73 1.39 1.73 1.39 3.73 4.39 2.6 0.304 4.91 0.419 7.5 0.375 0.69 0.0116 1.38 0.0232 2.09 0.0352 2.24 0.0237 2.24 0.0237 5.41-0.41 0.66-0.99 1.32-1.98 2-3 0.928-0.124 1.86-0.247 2.81-0.375 4.09-0.801 5.57-2.47 8.19-5.62v-2l3.12-0.0625c4.65-1.12 5.85-2.65 8.61-6.34 1.26-1.59 1.26-1.59 3.26-2.59 0.21-4.14 0.21-4.14-1-8h-2l-1-3c-0.639-0.309-1.28-0.619-1.94-0.938-2.06-1.06-2.06-1.06-2.91-3-1.5-2.68-2.82-3.06-5.65-4.12-3.53-1.34-4.31-1.65-6.5-4.94-3.1-0.291-5.99-0.396-9.09-0.363-0.902-4.99e-4 -1.8-9.97e-4 -2.73-0.00151-1.91 0.00234-3.82 0.0121-5.73 0.0286-2.93 0.0236-5.86 0.0206-8.79 0.0139-1.85 0.00558-3.71 0.0127-5.56 0.0215-0.88-9.11e-4 -1.76-0.00182-2.67-0.00276-4.7-0.17-4.7-0.17-8.43 2.3zm-52 43 1 2zm36 60 1 2z" fill="#FBFCFE"/>
<path transform="translate(929,367)" d="m0 0h53c0.495 1.49 0.495 1.49 1 3 1.17 0.0735 1.17 0.0735 2.37 0.148 1.01 0.0748 2.02 0.15 3.07 0.227 1.51 0.104 1.51 0.104 3.06 0.211 1.24 0.205 1.24 0.205 2.5 0.414 0.33 0.66 0.66 1.32 1 2 2.58 0.691 2.58 0.691 5.56 1.12 1.01 0.168 2.02 0.335 3.07 0.508 0.782 0.121 1.56 0.242 2.37 0.367 0.33 0.99 0.66 1.98 1 3 1.32 0.699 2.65 1.37 4 2 0.33 0.66 0.66 1.32 1 2 1.09 0.268 2.19 0.536 3.31 0.812 4.34 1.4 5.04 2.58 7.69 6.19 1.38 1.16 2.78 2.31 4.19 3.44 3.71 3.13 3.71 3.13 4.62 6.88 0.0619 0.887 0.124 1.77 0.188 2.69 0.99 0.66 1.98 1.32 3 2v2c0.619 0.206 1.24 0.413 1.88 0.625 2.97 1.92 3.16 4.05 4.12 7.38 0.66 0.66 1.32 1.32 2 2 0.144 0.99 0.289 1.98 0.438 3 0.186 0.99 0.371 1.98 0.562 3 0.99 0.66 1.98 1.32 3 2 0.188 3.12 0.188 3.12 0 6 0.648 0.186 1.3 0.371 1.96 0.562 0.672 0.474 1.34 0.949 2.04 1.44 0.504 3.19 0.504 3.19 0.562 7 0.00223 3.72 0.00223 3.72 0.438 7 0.99 0.66 1.98 1.32 3 2 0.361 1.87 0.361 1.87 0.341 4.17-2.27e-4 0.861-4.53e-4 1.72-6.87e-4 2.61-0.0155 0.93-0.031 1.86-0.0469 2.82-0.00424 0.952-0.00849 1.9-0.0129 2.88-0.0168 3.05-0.0545 6.09-0.0926 9.14-0.015 2.06-0.0287 4.12-0.041 6.19-0.0331 5.06-0.0849 10.1-0.146 15.2-0.99 0.33-1.98 0.66-3 1-0.33 3.63-0.66 7.26-1 11-0.99 0.33-1.98 0.66-3 1-0.0206 1.03-0.0412 2.06-0.0625 3.12-1.14 4.72-2.68 5.6-6.38 8.41-1.87 1.46-1.87 1.46-2.06 4.46-0.671 4.03-2.46 4.99-5.59 7.41-2.58 2.15-4.58 4.64-6.65 7.27-0.416 0.436-0.833 0.871-1.26 1.32h-2c-0.33 0.99-0.66 1.98-1 3-2.06 0.688-2.06 0.688-4 1-0.0825 0.598-0.165 1.2-0.25 1.81-0.998 2.91-2.09 3.68-4.75 5.19-3.25 0.688-3.25 0.688-6 1-0.33 0.99-0.66 1.98-1 3-2.32 0.717-4.65 1.38-7 2l-2 2c-1.01 0.33-2.02 0.66-3.06 1-3.06 0.658-3.06 0.658-3.94 3-3.59 0.359-7.17 0.445-10.8 0.559-1.06 0.146-2.13 0.291-3.22 0.441-0.66 0.99-1.32 1.98-2 3-2.67 0.304-5.11 0.42-7.78 0.398-0.769 0.00287-1.54 0.00574-2.33 0.0087-1.63 0.00204-3.25-0.0035-4.88-0.016-2.5-0.0161-4.99-1.59e-4 -7.49 0.019-1.58-0.00198-3.16-0.00583-4.74-0.0117-0.749 0.00607-1.5 0.0121-2.27 0.0184-2.1-0.0287-2.1-0.0287-5.51-0.417-0.66-0.99-1.32-1.98-2-3-3.28-0.473-3.28-0.473-7-0.5-3.81-0.0938-3.81-0.0938-7-0.5-0.66-0.99-1.32-1.98-2-3-2.33-0.694-4.66-1.36-7-2-0.33-0.66-0.66-1.32-1-2-1.45-0.186-1.45-0.186-2.94-0.375-3.06-0.625-3.06-0.625-4.44-2.69-0.206-0.639-0.413-1.28-0.625-1.94-1.33 0.155-1.33 0.155-2.69 0.312-3.31-0.312-3.31-0.312-6.19-2.69-2.12-2.62-2.12-2.62-2.12-4.62-0.99-0.33-1.98-0.66-3-1-1.36-1.42-1.36-1.42-2.75-3.19-2.15-2.64-4.31-4.73-7-6.81-3.66-2.98-4.27-5.47-5.25-10-0.66-0.33-1.32-0.66-2-1-0.407-2.32-0.744-4.66-1-7-0.99-0.33-1.98-0.66-3-1-0.103-0.949-0.206-1.9-0.312-2.88-0.373-3.42-0.373-3.42-3.69-5.12-0.688-3.62-0.688-3.62-1-7-0.99-0.33-1.98-0.66-3-1-0.33-3.63-0.66-7.26-1-11-0.99-0.33-1.98-0.66-3-1v-45l4-2v-6c1.32-0.66 2.64-1.32 4-2v-10c1.32-0.66 2.64-1.32 4-2 1.27-2.03 1.27-2.03 2-4h2c0.0619-1.05 0.124-2.1 0.188-3.19 0.955-4.48 2.25-6.02 5.81-8.81h3c0.103-0.639 0.206-1.28 0.312-1.94 0.227-0.681 0.454-1.36 0.688-2.06 0.99-0.33 1.98-0.66 3-1v-2h3c0.103-0.639 0.206-1.28 0.312-1.94 0.227-0.681 0.454-1.36 0.688-2.06 0.99-0.33 1.98-0.66 3-1 0.433-0.897 0.433-0.897 0.875-1.81 1.53-2.98 3.33-4.37 6.12-6.19 2.81-0.25 2.81-0.25 5 0 0.206-0.639 0.413-1.28 0.625-1.94 0.681-1.02 0.681-1.02 1.38-2.06 1.99-0.381 3.99-0.713 6-1 0.461-0.5 0.923-1 1.4-1.52 1.6-1.48 1.6-1.48 3.86-1.78 0.801 0.0348 1.6 0.0696 2.43 0.105 1.21 0.0406 1.21 0.0406 2.45 0.082 0.615 0.0348 1.23 0.0696 1.86 0.105 0.66-1.32 1.32-2.64 2-4zm10 62v3h-3c-1.48 1.23-1.48 1.23-3 3l-6 6c-0.0408 2-0.0425 4 0 6-0.866 0.34-0.866 0.34-1.75 0.688-3.14 1.83-4.36 3.13-6.25 6.31-0.573 4.07-0.512 8.08-0.438 12.2-0.00709 1.11-0.0142 2.21-0.0215 3.35-0.00343 4.25-0.00343 4.25 0.459 8.46 0.99 0.66 1.98 1.32 3 2 0.289 1.11 0.577 2.23 0.875 3.38 1.31 4.23 2.64 5.08 6.12 7.62 0.743 1.27 0.743 1.27 1.5 2.56 1.86 3.02 3.26 4 6.5 5.44 1.35 0.204 2.7 0.369 4.06 0.5 3.94 0.5 3.94 0.5 5.86 2.01 2.58 1.86 4.06 1.88 7.21 1.89 0.971 0.00387 1.94 0.00773 2.94 0.0117 1.01-0.0116 2.01-0.0232 3.05-0.0352 1.01 0.0116 2.03 0.0232 3.07 0.0352 1.45-0.0058 1.45-0.0058 2.93-0.0117 1.33-0.00508 1.33-0.00508 2.68-0.0103 0.72-0.128 1.44-0.256 2.18-0.388 0.99-1.48 0.99-1.48 2-3 3.62-1.19 3.62-1.19 7-2v-2h2c1.34-1.36 1.34-1.36 2.69-3.12 2.18-2.7 4.31-4.67 7.12-6.69 2.33-1.88 3.09-2.75 3.75-5.71 0.224-2.7 0.224-2.7 0.176-5.3 0.0877-0.717 0.175-1.43 0.266-2.17 0.99-0.66 1.98-1.32 3-2 0.5-3.5 0.5-3.5 0-7-1.49-0.99-1.49-0.99-3-2-0.406-2.93-0.406-2.93-0.5-6.44 0.0846-4.52 0.0846-4.52-1.99-8.27-0.748-0.64-0.748-0.64-1.51-1.29-0.227-1.07-0.454-2.14-0.688-3.25-1.8-5.15-4.87-7.72-9.31-10.8-3.22-1.24-3.22-1.24-6-2-0.66-0.99-1.32-1.98-2-3-2.53-0.292-4.81-0.396-7.34-0.363-0.725-4.99e-4 -1.45-9.97e-4 -2.2-0.00151-1.53 0.00234-3.07 0.0121-4.6 0.0286-2.35 0.0236-4.7 0.0206-7.05 0.0139-1.49 0.00558-2.98 0.0127-4.46 0.0215-0.705-9.11e-4 -1.41-0.00182-2.14-0.00276-4.05-0.0517-4.05-0.0517-7.21 2.3zm48 61 1 2zm-4 4 1 2z" fill="#FBFCFE"/>
<path transform="translate(184,280)" d="m0 0c2.86 1.28 5.11 2.45 7 5 0.188 2.69 0.188 2.69 0 5-2.64-0.357-4.61-0.752-6.88-2.19-1.12-1.81-1.12-1.81-0.812-5 0.227-0.928 0.454-1.86 0.688-2.81z" fill="#F6F7F9"/>
<path transform="translate(191,290)" d="m0 0 1 2c-1.32-0.33-2.64-0.66-4-1 0.99-0.33 1.98-0.66 3-1z" fill="#323333"/>
<path transform="translate(544,859)" d="m0 0 4 1z" fill="#000100"/>
<path transform="translate(467,624)" d="m0 0 1 4z" fill="#000100"/>
<path transform="translate(498)" d="m0 0c0.33 0.99 0.66 1.98 1 3-0.66-0.33-1.32-0.66-2-1 0.33-0.66 0.66-1.32 1-2z" fill="#FCFDFF"/>
<path transform="translate(837,371)" d="m0 0c3 1 3 1 3 1z" fill="#000100"/>
<path transform="translate(1264,1403)" d="m0 0 2 1z" fill="#000100"/>
<path transform="translate(256,1307)" d="m0 0 2 1z" fill="#000100"/>
<path transform="translate(1504,1075)" d="m0 0 2 1z" fill="#000100"/>
<path transform="translate(184,1055)" d="m0 0 2 1z" fill="#000100"/>
<path transform="translate(78,1047)" d="m0 0 2 1z" fill="#000100"/>
<path transform="translate(878,847)" d="m0 0 2 1z" fill="#000100"/>
<path transform="translate(550,35)" d="m0 0 2 1z" fill="#000100"/>
<path transform="translate(590,3)" d="m0 0 2 1z" fill="#000100"/>
</svg>
